<svg xmlns="http://www.w3.org/2000/svg" viewBox="0 0 1018 76" width="1018" height="76">

<defs><radialGradient id="w-on-dark-core" gradientUnits="userSpaceOnUse" cx="50.0" cy="24.0" r="5.0"><stop offset="0" stop-color="#FFFFFF"/><stop offset="0.30" stop-color="#E4FAFE"/><stop offset="0.62" stop-color="#8ADCF1"/><stop offset="1" stop-color="#24ADDB"/></radialGradient><radialGradient id="w-on-dark-halo" gradientUnits="userSpaceOnUse" cx="50.0" cy="24.0" r="10.5"><stop offset="0.45" stop-color="#24ADDB" stop-opacity="0.55"/><stop offset="0.75" stop-color="#24ADDB" stop-opacity="0.16"/><stop offset="1" stop-color="#24ADDB" stop-opacity="0"/></radialGradient></defs>
<g transform="translate(-12.782,-21.108) scale(1.9363)"><path d="M10.00,27.50 C10.68,27.19 12.71,26.22 14.07,25.63 C15.43,25.03 16.79,24.48 18.15,23.96 C19.51,23.43 20.87,22.94 22.22,22.48 C23.58,22.02 24.93,21.59 26.28,21.19 C27.63,20.79 28.98,20.43 30.32,20.10 C31.66,19.76 33.01,19.48 34.34,19.20 C35.67,18.92 37.00,18.68 38.31,18.43 C39.63,18.18 40.93,17.90 42.23,17.70 C43.54,17.50 44.84,17.32 46.14,17.21 C47.43,17.09 48.71,17.00 50.00,17.00 C51.29,17.00 52.57,17.09 53.86,17.21 C55.16,17.32 56.46,17.50 57.77,17.70 C59.07,17.90 60.37,18.18 61.69,18.43 C63.00,18.68 64.33,18.92 65.66,19.20 C66.99,19.48 68.34,19.76 69.68,20.10 C71.02,20.43 72.37,20.79 73.72,21.19 C75.07,21.59 76.42,22.02 77.78,22.48 C79.13,22.94 80.49,23.43 81.85,23.96 C83.21,24.48 84.57,25.03 85.93,25.63 C87.29,26.22 89.32,27.19 90.00,27.50 L90.00,27.50 C89.35,27.14 87.38,26.04 86.07,25.33 C84.76,24.63 83.46,23.94 82.15,23.28 C80.84,22.62 79.53,21.99 78.22,21.38 C76.91,20.77 75.60,20.18 74.28,19.63 C72.96,19.07 71.64,18.54 70.32,18.04 C69.00,17.54 67.67,17.05 66.34,16.63 C65.00,16.20 63.66,15.81 62.31,15.49 C60.96,15.18 59.59,14.95 58.23,14.74 C56.87,14.52 55.51,14.34 54.14,14.22 C52.77,14.10 51.38,14.00 50.00,14.00 C48.62,14.00 47.23,14.10 45.86,14.22 C44.49,14.34 43.13,14.52 41.77,14.74 C40.41,14.95 39.04,15.18 37.69,15.49 C36.34,15.81 35.00,16.20 33.66,16.63 C32.33,17.05 31.00,17.54 29.68,18.04 C28.36,18.54 27.04,19.07 25.72,19.63 C24.40,20.18 23.09,20.77 21.78,21.38 C20.47,21.99 19.16,22.62 17.85,23.28 C16.54,23.94 15.24,24.63 13.93,25.33 C12.62,26.04 10.65,27.14 10.00,27.50 Z" fill="#24ADDB"/>
<path d="M64.10,27.42 C64.05,27.50 63.92,27.74 63.82,27.89 C63.72,28.05 63.61,28.20 63.50,28.36 C63.39,28.51 63.27,28.66 63.15,28.81 C63.03,28.96 62.90,29.11 62.77,29.25 C62.63,29.39 62.49,29.54 62.35,29.68 C62.21,29.82 62.06,29.95 61.90,30.09 C61.75,30.22 61.59,30.35 61.42,30.48 C61.26,30.61 61.09,30.74 60.91,30.86 C60.74,30.99 60.56,31.11 60.37,31.22 C60.19,31.34 60.00,31.46 59.81,31.57 C59.62,31.68 59.42,31.78 59.22,31.89 C59.02,31.99 58.81,32.09 58.60,32.19 C58.40,32.29 58.18,32.38 57.97,32.47 C57.75,32.56 57.53,32.65 57.31,32.73 C57.09,32.81 56.86,32.89 56.63,32.97 C56.41,33.04 56.17,33.11 55.94,33.18 C55.71,33.25 55.47,33.31 55.23,33.37 C54.99,33.43 54.75,33.49 54.51,33.54 C54.27,33.59 54.02,33.64 53.78,33.68 C53.53,33.72 53.28,33.76 53.03,33.79 C52.78,33.83 52.53,33.86 52.28,33.88 C52.03,33.91 51.78,33.93 51.52,33.95 C51.27,33.97 51.02,33.98 50.76,33.99 C50.51,34.00 50.25,34.00 50.00,34.00 C49.75,34.00 49.49,34.00 49.24,33.99 C48.98,33.98 48.73,33.97 48.48,33.95 C48.22,33.93 47.97,33.91 47.72,33.88 C47.47,33.86 47.22,33.83 46.97,33.79 C46.72,33.76 46.47,33.72 46.22,33.68 C45.98,33.64 45.73,33.59 45.49,33.54 C45.25,33.49 45.01,33.43 44.77,33.37 C44.53,33.31 44.29,33.25 44.06,33.18 C43.83,33.11 43.59,33.04 43.37,32.97 C43.14,32.89 42.91,32.81 42.69,32.73 C42.47,32.65 42.25,32.56 42.03,32.47 C41.82,32.38 41.60,32.29 41.40,32.19 C41.19,32.09 40.98,31.99 40.78,31.89 C40.58,31.78 40.38,31.68 40.19,31.57 C40.00,31.46 39.81,31.34 39.63,31.22 C39.44,31.11 39.26,30.99 39.09,30.86 C38.91,30.74 38.74,30.61 38.58,30.48 C38.41,30.35 38.25,30.22 38.10,30.09 C37.94,29.95 37.79,29.82 37.65,29.68 C37.51,29.54 37.37,29.39 37.23,29.25 C37.10,29.11 36.97,28.96 36.85,28.81 C36.73,28.66 36.61,28.51 36.50,28.36 C36.39,28.20 36.28,28.05 36.18,27.89 C36.08,27.74 35.95,27.50 35.90,27.42" fill="none" stroke="#24ADDB" stroke-width="2.2" stroke-linecap="round"/>
<path d="M73.29,27.87 C73.23,28.01 73.06,28.44 72.93,28.72 C72.80,29.00 72.66,29.28 72.50,29.56 C72.35,29.84 72.19,30.11 72.01,30.38 C71.83,30.65 71.65,30.92 71.45,31.18 C71.25,31.44 71.04,31.70 70.82,31.96 C70.60,32.22 70.37,32.47 70.13,32.71 C69.89,32.96 69.64,33.20 69.38,33.44 C69.11,33.68 68.84,33.91 68.56,34.14 C68.28,34.37 67.99,34.59 67.69,34.81 C67.40,35.03 67.09,35.24 66.77,35.44 C66.46,35.65 66.13,35.85 65.80,36.04 C65.47,36.24 65.12,36.43 64.78,36.61 C64.43,36.79 64.07,36.96 63.71,37.13 C63.35,37.30 62.98,37.46 62.60,37.62 C62.22,37.77 61.84,37.92 61.45,38.06 C61.06,38.20 60.67,38.34 60.27,38.46 C59.87,38.59 59.46,38.71 59.06,38.82 C58.65,38.93 58.23,39.03 57.81,39.13 C57.40,39.22 56.97,39.31 56.55,39.39 C56.12,39.47 55.69,39.55 55.26,39.61 C54.83,39.68 54.40,39.73 53.96,39.78 C53.53,39.83 53.09,39.87 52.65,39.90 C52.21,39.93 51.77,39.96 51.33,39.98 C50.88,39.99 50.44,40.00 50.00,40.00 C49.56,40.00 49.12,39.99 48.67,39.98 C48.23,39.96 47.79,39.93 47.35,39.90 C46.91,39.87 46.47,39.83 46.04,39.78 C45.60,39.73 45.17,39.68 44.74,39.61 C44.31,39.55 43.88,39.47 43.45,39.39 C43.03,39.31 42.60,39.22 42.19,39.13 C41.77,39.03 41.35,38.93 40.94,38.82 C40.54,38.71 40.13,38.59 39.73,38.46 C39.33,38.34 38.94,38.20 38.55,38.06 C38.16,37.92 37.78,37.77 37.40,37.62 C37.02,37.46 36.65,37.30 36.29,37.13 C35.93,36.96 35.57,36.79 35.22,36.61 C34.88,36.43 34.53,36.24 34.20,36.04 C33.87,35.85 33.54,35.65 33.23,35.44 C32.91,35.24 32.60,35.03 32.31,34.81 C32.01,34.59 31.72,34.37 31.44,34.14 C31.16,33.91 30.89,33.68 30.62,33.44 C30.36,33.20 30.11,32.96 29.87,32.71 C29.63,32.47 29.40,32.22 29.18,31.96 C28.96,31.70 28.75,31.44 28.55,31.18 C28.35,30.92 28.17,30.65 27.99,30.38 C27.81,30.11 27.65,29.84 27.50,29.56 C27.34,29.28 27.20,29.00 27.07,28.72 C26.94,28.44 26.77,28.01 26.71,27.87" fill="none" stroke="#24ADDB" stroke-width="1.9" stroke-linecap="round" opacity="0.85"/>
<path d="M82.50,27.82 C82.43,28.03 82.26,28.66 82.11,29.07 C81.96,29.49 81.80,29.90 81.61,30.31 C81.43,30.72 81.23,31.12 81.01,31.52 C80.79,31.93 80.55,32.32 80.30,32.71 C80.05,33.11 79.78,33.49 79.49,33.87 C79.20,34.25 78.90,34.63 78.58,35.00 C78.26,35.37 77.92,35.73 77.57,36.09 C77.22,36.45 76.85,36.80 76.47,37.14 C76.09,37.48 75.69,37.81 75.28,38.14 C74.87,38.47 74.44,38.79 74.00,39.10 C73.56,39.41 73.11,39.71 72.65,40.00 C72.18,40.29 71.70,40.58 71.21,40.85 C70.72,41.13 70.22,41.39 69.71,41.65 C69.19,41.90 68.67,42.15 68.13,42.38 C67.60,42.62 67.05,42.84 66.50,43.05 C65.95,43.27 65.38,43.47 64.81,43.66 C64.24,43.85 63.66,44.03 63.07,44.20 C62.48,44.37 61.89,44.53 61.29,44.67 C60.69,44.82 60.08,44.95 59.46,45.08 C58.85,45.20 58.23,45.31 57.61,45.41 C56.99,45.51 56.36,45.59 55.73,45.67 C55.10,45.74 54.47,45.80 53.83,45.85 C53.20,45.90 52.56,45.94 51.92,45.96 C51.28,45.99 50.64,46.00 50.00,46.00 C49.36,46.00 48.72,45.99 48.08,45.96 C47.44,45.94 46.80,45.90 46.17,45.85 C45.53,45.80 44.90,45.74 44.27,45.67 C43.64,45.59 43.01,45.51 42.39,45.41 C41.77,45.31 41.15,45.20 40.54,45.08 C39.92,44.95 39.31,44.82 38.71,44.67 C38.11,44.53 37.52,44.37 36.93,44.20 C36.34,44.03 35.76,43.85 35.19,43.66 C34.62,43.47 34.05,43.27 33.50,43.05 C32.95,42.84 32.40,42.62 31.87,42.38 C31.33,42.15 30.81,41.90 30.29,41.65 C29.78,41.39 29.28,41.13 28.79,40.85 C28.30,40.58 27.82,40.29 27.35,40.00 C26.89,39.71 26.44,39.41 26.00,39.10 C25.56,38.79 25.13,38.47 24.72,38.14 C24.31,37.81 23.91,37.48 23.53,37.14 C23.15,36.80 22.78,36.45 22.43,36.09 C22.08,35.73 21.74,35.37 21.42,35.00 C21.10,34.63 20.80,34.25 20.51,33.87 C20.22,33.49 19.95,33.11 19.70,32.71 C19.45,32.32 19.21,31.93 18.99,31.52 C18.77,31.12 18.57,30.72 18.39,30.31 C18.20,29.90 18.04,29.49 17.89,29.07 C17.74,28.66 17.57,28.03 17.50,27.82" fill="none" stroke="#24ADDB" stroke-width="1.6" stroke-linecap="round" opacity="0.7"/>
<circle cx="50.0" cy="24.0" r="10.5" fill="url(#w-on-dark-halo)"/>
<circle cx="50.0" cy="24.0" r="5.0" fill="url(#w-on-dark-core)"/></g>
<path transform="translate(188.74,59.65)" d="M20.34 1.14Q14.52 1.14 10.53 -0.7200000000000001Q6.54 -2.58 4.4399999999999995 -5.85Q2.34 -9.12 2.34 -13.26H10.68Q10.68 -11.52 11.64 -9.87Q12.6 -8.219999999999999 14.73 -7.199999999999999Q16.86 -6.18 20.34 -6.18Q23.46 -6.18 25.560000000000002 -7.08Q27.66 -7.9799999999999995 28.68 -9.45Q29.7 -10.92 29.7 -12.78Q29.7 -15.12 27.72 -16.529999999999998Q25.74 -17.939999999999998 21.599999999999998 -18.3L17.759999999999998 -18.599999999999998Q11.459999999999999 -19.14 7.709999999999999 -22.53Q3.96 -25.919999999999998 3.96 -31.5Q3.96 -35.699999999999996 5.9399999999999995 -38.73Q7.92 -41.76 11.489999999999998 -43.41Q15.059999999999999 -45.059999999999995 19.86 -45.059999999999995Q24.84 -45.059999999999995 28.439999999999998 -43.31999999999999Q32.04 -41.58 34.019999999999996 -38.43Q36.0 -35.28 36.0 -31.02H27.66Q27.66 -32.82 26.79 -34.349999999999994Q25.919999999999998 -35.879999999999995 24.21 -36.81Q22.5 -37.74 19.86 -37.74Q17.34 -37.74 15.66 -36.9Q13.979999999999999 -36.059999999999995 13.139999999999999 -34.62Q12.299999999999999 -33.18 12.299999999999999 -31.5Q12.299999999999999 -29.459999999999997 13.799999999999999 -27.93Q15.299999999999999 -26.4 18.54 -26.16L22.38 -25.8Q27.06 -25.439999999999998 30.6 -23.82Q34.14 -22.2 36.09 -19.439999999999998Q38.04 -16.68 38.04 -12.78Q38.04 -8.64 35.879999999999995 -5.49Q33.72 -2.34 29.729999999999997 -0.6Q25.74 1.14 20.34 1.14Z M59.76 1.14Q55.559999999999995 1.14 52.41 -0.30000000000000004Q49.26 -1.74 47.19 -4.17Q45.12 -6.6 44.06999999999999 -9.6Q43.019999999999996 -12.6 43.019999999999996 -15.719999999999999V-16.86Q43.019999999999996 -20.099999999999998 44.06999999999999 -23.13Q45.12 -26.16 47.19 -28.53Q49.26 -30.9 52.31999999999999 -32.31Q55.379999999999995 -33.72 59.4 -33.72Q64.67999999999999 -33.72 68.25 -31.409999999999997Q71.82 -29.099999999999998 73.61999999999999 -25.349999999999998Q75.41999999999999 -21.599999999999998 75.41999999999999 -17.28V-14.28H46.559999999999995V-19.38H70.19999999999999L67.62 -16.86Q67.62 -19.98 66.72 -22.2Q65.82 -24.419999999999998 63.989999999999995 -25.619999999999997Q62.16 -26.82 59.4 -26.82Q56.64 -26.82 54.72 -25.560000000000002Q52.8 -24.3 51.809999999999995 -21.93Q50.81999999999999 -19.56 50.81999999999999 -16.259999999999998Q50.81999999999999 -13.2 51.779999999999994 -10.829999999999998Q52.739999999999995 -8.459999999999999 54.72 -7.109999999999999Q56.699999999999996 -5.76 59.76 -5.76Q62.81999999999999 -5.76 64.74 -6.989999999999999Q66.66 -8.219999999999999 67.19999999999999 -10.02H74.88Q74.16 -6.66 72.12 -4.14Q70.08 -1.6199999999999999 66.93 -0.24Q63.78 1.14 59.76 1.14Z M82.37999999999998 0.0V-32.58H88.97999999999999V-18.779999999999998H88.79999999999998Q88.79999999999998 -25.8 91.79999999999998 -29.4Q94.79999999999998 -33.0 100.61999999999999 -33.0H101.82V-25.74H99.53999999999999Q95.33999999999999 -25.74 93.02999999999999 -23.49Q90.71999999999998 -21.24 90.71999999999998 -16.98V0.0Z M121.97999999999999 1.14Q117.77999999999999 1.14 114.63 -0.30000000000000004Q111.47999999999999 -1.74 109.40999999999998 -4.17Q107.33999999999997 -6.6 106.28999999999998 -9.6Q105.23999999999998 -12.6 105.23999999999998 -15.719999999999999V-16.86Q105.23999999999998 -20.099999999999998 106.28999999999998 -23.13Q107.33999999999997 -26.16 109.40999999999998 -28.53Q111.47999999999999 -30.9 114.53999999999999 -32.31Q117.59999999999998 -33.72 121.61999999999998 -33.72Q126.89999999999998 -33.72 130.46999999999997 -31.409999999999997Q134.04 -29.099999999999998 135.83999999999997 -25.349999999999998Q137.64 -21.599999999999998 137.64 -17.28V-14.28H108.77999999999999V-19.38H132.42L129.83999999999997 -16.86Q129.83999999999997 -19.98 128.94 -22.2Q128.04 -24.419999999999998 126.20999999999998 -25.619999999999997Q124.37999999999998 -26.82 121.61999999999998 -26.82Q118.85999999999999 -26.82 116.93999999999998 -25.560000000000002Q115.01999999999998 -24.3 114.02999999999997 -21.93Q113.03999999999998 -19.56 113.03999999999998 -16.259999999999998Q113.03999999999998 -13.2 113.99999999999997 -10.829999999999998Q114.95999999999998 -8.459999999999999 116.93999999999998 -7.109999999999999Q118.91999999999999 -5.76 121.97999999999999 -5.76Q125.03999999999998 -5.76 126.95999999999998 -6.989999999999999Q128.88 -8.219999999999999 129.42 -10.02H137.09999999999997Q136.38 -6.66 134.33999999999997 -4.14Q132.29999999999998 -1.6199999999999999 129.14999999999998 -0.24Q125.99999999999999 1.14 121.97999999999999 1.14Z M144.6 0.0V-32.58H151.2V-18.599999999999998H150.6Q150.6 -23.58 151.92 -26.909999999999997Q153.23999999999998 -30.24 155.84999999999997 -31.92Q158.45999999999998 -33.6 162.35999999999999 -33.6H162.71999999999997Q168.54 -33.6 171.54 -29.85Q174.54 -26.099999999999998 174.54 -18.66V0.0H166.2V-19.38Q166.2 -22.38 164.48999999999998 -24.24Q162.77999999999997 -26.099999999999998 159.77999999999997 -26.099999999999998Q156.71999999999997 -26.099999999999998 154.82999999999998 -24.21Q152.94 -22.32 152.94 -19.14V0.0Z M185.04 0.0V-32.58H193.37999999999997V0.0ZM180.48 -26.34V-32.58H193.37999999999997V-26.34ZM188.09999999999997 -36.48Q185.64 -36.48 184.46999999999997 -37.769999999999996Q183.29999999999998 -39.059999999999995 183.29999999999998 -41.04Q183.29999999999998 -43.019999999999996 184.46999999999997 -44.28Q185.64 -45.54 188.09999999999997 -45.54Q190.55999999999997 -45.54 191.7 -44.28Q192.83999999999997 -43.019999999999996 192.83999999999997 -41.04Q192.83999999999997 -39.059999999999995 191.7 -37.769999999999996Q190.55999999999997 -36.48 188.09999999999997 -36.48Z M217.14 0.42Q212.64 0.42 209.73 -0.75Q206.82 -1.92 205.38 -4.71Q203.93999999999997 -7.5 203.93999999999997 -12.24L203.99999999999997 -41.76H211.79999999999998L211.73999999999998 -11.7Q211.73999999999998 -9.299999999999999 213.02999999999997 -8.01Q214.32 -6.72 216.71999999999997 -6.72H221.82V0.42ZM198.77999999999997 -26.459999999999997V-32.58H221.82V-26.459999999999997Z M243.41999999999996 1.14Q239.21999999999997 1.14 236.06999999999996 -0.30000000000000004Q232.91999999999996 -1.74 230.84999999999997 -4.17Q228.77999999999997 -6.6 227.72999999999996 -9.6Q226.67999999999998 -12.6 226.67999999999998 -15.719999999999999V-16.86Q226.67999999999998 -20.099999999999998 227.72999999999996 -23.13Q228.77999999999997 -26.16 230.84999999999997 -28.53Q232.91999999999996 -30.9 235.97999999999996 -32.31Q239.03999999999996 -33.72 243.05999999999997 -33.72Q248.33999999999997 -33.72 251.90999999999997 -31.409999999999997Q255.47999999999996 -29.099999999999998 257.28 -25.349999999999998Q259.08 -21.599999999999998 259.08 -17.28V-14.28H230.21999999999997V-19.38H253.85999999999996L251.27999999999997 -16.86Q251.27999999999997 -19.98 250.37999999999997 -22.2Q249.47999999999996 -24.419999999999998 247.64999999999998 -25.619999999999997Q245.81999999999996 -26.82 243.05999999999997 -26.82Q240.29999999999995 -26.82 238.37999999999997 -25.560000000000002Q236.45999999999998 -24.3 235.46999999999997 -21.93Q234.47999999999996 -19.56 234.47999999999996 -16.259999999999998Q234.47999999999996 -13.2 235.43999999999997 -10.829999999999998Q236.39999999999998 -8.459999999999999 238.37999999999997 -7.109999999999999Q240.35999999999996 -5.76 243.41999999999996 -5.76Q246.47999999999996 -5.76 248.39999999999998 -6.989999999999999Q250.31999999999996 -8.219999999999999 250.85999999999996 -10.02H258.53999999999996Q257.81999999999994 -6.66 255.77999999999994 -4.14Q253.73999999999995 -1.6199999999999999 250.58999999999997 -0.24Q247.43999999999997 1.14 243.41999999999996 1.14Z M280.49999999999994 1.14Q276.23999999999995 1.14 273.15 -0.30000000000000004Q270.05999999999995 -1.74 267.98999999999995 -4.14Q265.91999999999996 -6.54 264.9 -9.54Q263.87999999999994 -12.54 263.87999999999994 -15.66V-16.8Q263.87999999999994 -20.099999999999998 264.92999999999995 -23.13Q265.97999999999996 -26.16 268.0799999999999 -28.53Q270.17999999999995 -30.9 273.27 -32.31Q276.35999999999996 -33.72 280.43999999999994 -33.72Q284.69999999999993 -33.72 288.05999999999995 -32.07Q291.41999999999996 -30.419999999999998 293.42999999999995 -27.479999999999997Q295.43999999999994 -24.54 295.67999999999995 -20.64H287.5799999999999Q287.28 -23.16 285.44999999999993 -24.84Q283.61999999999995 -26.52 280.43999999999994 -26.52Q277.67999999999995 -26.52 275.84999999999997 -25.2Q274.02 -23.88 273.12 -21.57Q272.21999999999997 -19.259999999999998 272.21999999999997 -16.259999999999998Q272.21999999999997 -13.379999999999999 273.09 -11.04Q273.96 -8.7 275.78999999999996 -7.379999999999999Q277.61999999999995 -6.06 280.49999999999994 -6.06Q282.65999999999997 -6.06 284.21999999999997 -6.84Q285.78 -7.62 286.7099999999999 -9.0Q287.63999999999993 -10.379999999999999 287.87999999999994 -12.12H295.97999999999996Q295.73999999999995 -8.16 293.66999999999996 -5.1899999999999995Q291.59999999999997 -2.2199999999999998 288.2099999999999 -0.5399999999999999Q284.81999999999994 1.14 280.49999999999994 1.14Z M302.64 0.0V-43.8H310.97999999999996V-18.24H309.53999999999996Q309.53999999999996 -23.16 310.79999999999995 -26.58Q312.06 -30.0 314.54999999999995 -31.8Q317.03999999999996 -33.6 320.88 -33.6H321.23999999999995Q326.82 -33.6 329.7 -29.759999999999998Q332.58 -25.919999999999998 332.58 -18.599999999999998V0.0H324.23999999999995V-19.38Q324.23999999999995 -22.5 322.46999999999997 -24.299999999999997Q320.7 -26.099999999999998 317.82 -26.099999999999998Q314.76 -26.099999999999998 312.87 -24.089999999999996Q310.97999999999996 -22.08 310.97999999999996 -18.84V0.0Z" fill="#F4F8FB"/>
<rect x="551.52" y="13.62" width="2" height="48.27" fill="#24ADDB" opacity="0.55"/>
<path transform="translate(579.52,49.55)" d="M9.764999999999999 0.44999999999999996Q7.47 0.44999999999999996 5.6325 -0.32999999999999996Q3.795 -1.1099999999999999 2.6025 -2.5575Q1.41 -4.005 1.05 -5.984999999999999L3.81 -6.42Q4.335 -4.38 5.9925 -3.2325Q7.6499999999999995 -2.085 9.9 -2.085Q11.355 -2.085 12.532499999999999 -2.5425Q13.709999999999999 -3.0 14.399999999999999 -3.855Q15.09 -4.71 15.09 -5.88Q15.09 -6.6 14.8425 -7.1175Q14.594999999999999 -7.635 14.1675 -8.0025Q13.74 -8.37 13.2 -8.625Q12.66 -8.879999999999999 12.075 -9.045L6.569999999999999 -10.68Q5.67 -10.95 4.83 -11.3625Q3.9899999999999998 -11.775 3.33 -12.3975Q2.67 -13.02 2.28 -13.897499999999999Q1.89 -14.774999999999999 1.89 -15.975Q1.89 -17.895 2.8874999999999997 -19.252499999999998Q3.885 -20.61 5.595 -21.33Q7.305 -22.05 9.45 -22.035Q11.625 -22.02 13.3425 -21.2625Q15.059999999999999 -20.505 16.1925 -19.095Q17.325 -17.685 17.715 -15.719999999999999L14.879999999999999 -15.225Q14.655 -16.544999999999998 13.8825 -17.4975Q13.11 -18.45 11.954999999999998 -18.9675Q10.799999999999999 -19.485 9.42 -19.5Q8.1 -19.515 7.035 -19.08Q5.97 -18.645 5.34 -17.8725Q4.71 -17.099999999999998 4.71 -16.095Q4.71 -15.104999999999999 5.279999999999999 -14.497499999999999Q5.85 -13.889999999999999 6.682499999999999 -13.537499999999998Q7.515 -13.184999999999999 8.31 -12.959999999999999L12.42 -11.775Q13.125 -11.58 14.0475 -11.235Q14.969999999999999 -10.889999999999999 15.84 -10.267499999999998Q16.71 -9.645 17.28 -8.6175Q17.849999999999998 -7.59 17.849999999999998 -6.029999999999999Q17.849999999999998 -4.47 17.2275 -3.255Q16.605 -2.04 15.495000000000001 -1.2225Q14.385 -0.40499999999999997 12.915 0.022499999999999992Q11.445 0.44999999999999996 9.764999999999999 0.44999999999999996Z M28.32 0.44999999999999996Q25.935 0.44999999999999996 24.1575 -0.6075Q22.38 -1.665 21.39 -3.5625Q20.4 -5.46 20.4 -7.995Q20.4 -10.65 21.375 -12.592500000000001Q22.349999999999998 -14.535 24.097499999999997 -15.5925Q25.845 -16.65 28.2 -16.65Q30.645 -16.65 32.3625 -15.524999999999999Q34.08 -14.399999999999999 34.942499999999995 -12.315Q35.805 -10.23 35.685 -7.35H32.985V-8.31Q32.94 -11.295 31.77 -12.7725Q30.6 -14.25 28.29 -14.25Q25.814999999999998 -14.25 24.525 -12.66Q23.235 -11.07 23.235 -8.1Q23.235 -5.234999999999999 24.525 -3.6599999999999997Q25.814999999999998 -2.085 28.2 -2.085Q29.805 -2.085 30.99 -2.82Q32.175 -3.5549999999999997 32.85 -4.935L35.415 -4.05Q34.47 -1.905 32.5725 -0.7275Q30.674999999999997 0.44999999999999996 28.32 0.44999999999999996ZM22.335 -7.35V-9.495H34.305V-7.35Z M39.315000000000005 0.0V-16.2H41.7V-12.285L41.31 -12.795Q41.595000000000006 -13.545 42.05250000000001 -14.175Q42.510000000000005 -14.805 43.080000000000005 -15.209999999999999Q43.71 -15.719999999999999 44.505 -15.989999999999998Q45.300000000000004 -16.259999999999998 46.125 -16.3125Q46.95 -16.365 47.67 -16.2V-13.695Q46.830000000000005 -13.92 45.825 -13.815Q44.82 -13.709999999999999 43.965 -13.08Q43.185 -12.525 42.75750000000001 -11.73Q42.330000000000005 -10.934999999999999 42.165000000000006 -10.0125Q42.0 -9.09 42.0 -8.129999999999999V0.0Z M57.84 0.44999999999999996Q55.455000000000005 0.44999999999999996 53.67750000000001 -0.6075Q51.900000000000006 -1.665 50.91000000000001 -3.5625Q49.92000000000001 -5.46 49.92000000000001 -7.995Q49.92000000000001 -10.65 50.89500000000001 -12.592500000000001Q51.870000000000005 -14.535 53.61750000000001 -15.5925Q55.36500000000001 -16.65 57.720000000000006 -16.65Q60.165000000000006 -16.65 61.88250000000001 -15.524999999999999Q63.60000000000001 -14.399999999999999 64.4625 -12.315Q65.325 -10.23 65.20500000000001 -7.35H62.50500000000001V-8.31Q62.46000000000001 -11.295 61.290000000000006 -12.7725Q60.120000000000005 -14.25 57.81 -14.25Q55.33500000000001 -14.25 54.04500000000001 -12.66Q52.75500000000001 -11.07 52.75500000000001 -8.1Q52.75500000000001 -5.234999999999999 54.04500000000001 -3.6599999999999997Q55.33500000000001 -2.085 57.720000000000006 -2.085Q59.325 -2.085 60.510000000000005 -2.82Q61.69500000000001 -3.5549999999999997 62.370000000000005 -4.935L64.935 -4.05Q63.99000000000001 -1.905 62.09250000000001 -0.7275Q60.19500000000001 0.44999999999999996 57.84 0.44999999999999996ZM51.855000000000004 -7.35V-9.495H63.825V-7.35Z M80.37000000000002 0.0V-8.115Q80.37000000000002 -9.27 80.16750000000002 -10.335Q79.96500000000002 -11.4 79.4625 -12.247499999999999Q78.96000000000001 -13.094999999999999 78.11250000000001 -13.59Q77.26500000000001 -14.084999999999999 75.97500000000001 -14.084999999999999Q74.97000000000001 -14.084999999999999 74.1525 -13.747499999999999Q73.33500000000001 -13.41 72.75000000000001 -12.719999999999999Q72.16500000000002 -12.03 71.84250000000002 -10.9875Q71.52000000000001 -9.945 71.52000000000001 -8.535L69.76500000000001 -9.075Q69.76500000000001 -11.43 70.61250000000001 -13.1175Q71.46000000000001 -14.805 72.9975 -15.7125Q74.53500000000001 -16.62 76.62000000000002 -16.62Q78.19500000000001 -16.62 79.305 -16.125Q80.41500000000002 -15.629999999999999 81.15000000000002 -14.8125Q81.88500000000002 -13.995 82.305 -12.982499999999998Q82.72500000000001 -11.969999999999999 82.89750000000001 -10.927499999999998Q83.07000000000002 -9.885 83.07000000000002 -8.955V0.0ZM68.82000000000001 0.0V-16.2H71.22000000000001V-11.865H71.52000000000001V0.0Z M87.57000000000002 -19.064999999999998V-21.825H90.24000000000001V-19.064999999999998ZM87.57000000000002 0.0V-16.2H90.24000000000001V0.0Z M104.08500000000001 0.0Q102.64500000000001 0.285 101.2425 0.23249999999999998Q99.84000000000002 0.18 98.745 -0.3375Q97.65 -0.855 97.08000000000001 -1.95Q96.60000000000001 -2.9099999999999997 96.5625 -3.8925Q96.525 -4.875 96.525 -6.12V-20.7H99.19500000000001V-6.24Q99.19500000000001 -5.25 99.2175 -4.545Q99.24000000000001 -3.84 99.525 -3.33Q100.06500000000001 -2.37 101.2425 -2.205Q102.42000000000002 -2.04 104.08500000000001 -2.295ZM93.24000000000001 -13.995V-16.2H104.08500000000001V-13.995Z M109.935 7.199999999999999 113.07000000000001 -1.3199999999999998 113.11500000000001 1.2 106.03500000000001 -16.2H108.84L114.39000000000001 -2.205H113.43L118.635 -16.2H121.35000000000001L112.53 7.199999999999999Z M137.865 0.44999999999999996Q135.585 0.44999999999999996 134.025 -0.6825Q132.465 -1.815 131.66250000000002 -3.7575000000000003Q130.86 -5.7 130.86 -8.115Q130.86 -10.559999999999999 131.66250000000002 -12.495Q132.465 -14.43 134.03250000000003 -15.54Q135.60000000000002 -16.65 137.88000000000002 -16.65Q140.13000000000002 -16.65 141.75750000000002 -15.532499999999999Q143.38500000000002 -14.415 144.25500000000002 -12.48Q145.12500000000003 -10.545 145.12500000000003 -8.115Q145.12500000000003 -5.685 144.25500000000002 -3.75Q143.38500000000002 -1.815 141.75750000000002 -0.6825Q140.13000000000002 0.44999999999999996 137.865 0.44999999999999996ZM130.41000000000003 0.0V-21.599999999999998H133.09500000000003V-11.924999999999999H132.79500000000002V0.0ZM137.53500000000003 -1.9949999999999999Q139.14000000000001 -1.9949999999999999 140.19 -2.8049999999999997Q141.24 -3.6149999999999998 141.76500000000001 -5.0024999999999995Q142.29000000000002 -6.39 142.29000000000002 -8.115Q142.29000000000002 -9.825 141.77250000000004 -11.204999999999998Q141.25500000000002 -12.584999999999999 140.1825 -13.395Q139.11 -14.205 137.46 -14.205Q135.88500000000002 -14.205 134.85000000000002 -13.432500000000001Q133.81500000000003 -12.66 133.305 -11.2875Q132.79500000000002 -9.915 132.79500000000002 -8.115Q132.79500000000002 -6.345 133.2975 -4.9575Q133.8 -3.57 134.85000000000002 -2.7824999999999998Q135.9 -1.9949999999999999 137.53500000000003 -1.9949999999999999Z M155.74500000000003 0.44999999999999996Q153.36 0.44999999999999996 151.58250000000004 -0.6075Q149.80500000000004 -1.665 148.81500000000003 -3.5625Q147.82500000000002 -5.46 147.82500000000002 -7.995Q147.82500000000002 -10.65 148.8 -12.592500000000001Q149.77500000000003 -14.535 151.52250000000004 -15.5925Q153.27000000000004 -16.65 155.62500000000003 -16.65Q158.07000000000002 -16.65 159.78750000000002 -15.524999999999999Q161.50500000000002 -14.399999999999999 162.3675 -12.315Q163.23000000000002 -10.23 163.11 -7.35H160.41000000000003V-8.31Q160.36500000000004 -11.295 159.19500000000005 -12.7725Q158.02500000000003 -14.25 155.71500000000003 -14.25Q153.24000000000004 -14.25 151.95000000000005 -12.66Q150.66000000000003 -11.07 150.66000000000003 -8.1Q150.66000000000003 -5.234999999999999 151.95000000000005 -3.6599999999999997Q153.24000000000004 -2.085 155.62500000000003 -2.085Q157.23000000000002 -2.085 158.41500000000002 -2.82Q159.60000000000002 -3.5549999999999997 160.27500000000003 -4.935L162.84000000000003 -4.05Q161.89500000000004 -1.905 159.99750000000003 -0.7275Q158.10000000000002 0.44999999999999996 155.74500000000003 0.44999999999999996ZM149.76000000000002 -7.35V-9.495H161.73000000000002V-7.35Z M168.99000000000004 7.199999999999999 172.12500000000006 -1.3199999999999998 172.17000000000004 1.2 165.09000000000003 -16.2H167.89500000000004L173.44500000000005 -2.205H172.48500000000004L177.69000000000005 -16.2H180.40500000000003L171.58500000000004 7.199999999999999Z M190.08000000000004 0.44999999999999996Q187.66500000000005 0.44999999999999996 185.91750000000005 -0.645Q184.17000000000004 -1.74 183.22500000000002 -3.675Q182.28000000000003 -5.609999999999999 182.28000000000003 -8.115Q182.28000000000003 -10.665 183.24000000000004 -12.584999999999999Q184.20000000000005 -14.504999999999999 185.95500000000004 -15.577499999999999Q187.71000000000004 -16.65 190.08000000000004 -16.65Q192.51000000000005 -16.65 194.26500000000004 -15.5625Q196.02000000000004 -14.475 196.95750000000004 -12.5475Q197.89500000000004 -10.62 197.89500000000004 -8.115Q197.89500000000004 -5.58 196.95000000000005 -3.6525Q196.00500000000005 -1.7249999999999999 194.25000000000006 -0.6375Q192.49500000000003 0.44999999999999996 190.08000000000004 0.44999999999999996ZM190.08000000000004 -2.085Q192.60000000000005 -2.085 193.83000000000004 -3.7649999999999997Q195.06000000000003 -5.444999999999999 195.06000000000003 -8.115Q195.06000000000003 -10.86 193.81500000000005 -12.4875Q192.57000000000005 -14.115 190.08000000000004 -14.115Q188.38500000000005 -14.115 187.29000000000005 -13.35Q186.19500000000005 -12.584999999999999 185.65500000000003 -11.235Q185.11500000000004 -9.885 185.11500000000004 -8.115Q185.11500000000004 -5.385 186.37500000000006 -3.735Q187.63500000000005 -2.085 190.08000000000004 -2.085Z M213.03000000000003 0.0V-8.115Q213.03000000000003 -9.27 212.82750000000004 -10.335Q212.62500000000003 -11.4 212.12250000000003 -12.247499999999999Q211.62000000000003 -13.094999999999999 210.77250000000004 -13.59Q209.92500000000004 -14.084999999999999 208.63500000000005 -14.084999999999999Q207.63000000000005 -14.084999999999999 206.81250000000006 -13.747499999999999Q205.99500000000003 -13.41 205.41000000000003 -12.719999999999999Q204.82500000000005 -12.03 204.50250000000005 -10.9875Q204.18000000000004 -9.945 204.18000000000004 -8.535L202.42500000000004 -9.075Q202.42500000000004 -11.43 203.27250000000004 -13.1175Q204.12000000000003 -14.805 205.65750000000003 -15.7125Q207.19500000000005 -16.62 209.28000000000003 -16.62Q210.85500000000005 -16.62 211.96500000000003 -16.125Q213.07500000000005 -15.629999999999999 213.81000000000006 -14.8125Q214.54500000000004 -13.995 214.96500000000003 -12.982499999999998Q215.38500000000005 -11.969999999999999 215.55750000000006 -10.927499999999998Q215.73000000000005 -9.885 215.73000000000005 -8.955V0.0ZM201.48000000000005 0.0V-16.2H203.88000000000005V-11.865H204.18000000000004V0.0Z M226.29000000000005 0.44999999999999996Q224.02500000000003 0.44999999999999996 222.40500000000003 -0.6825Q220.78500000000005 -1.815 219.90750000000003 -3.75Q219.03000000000003 -5.685 219.03000000000003 -8.115Q219.03000000000003 -10.545 219.90750000000003 -12.48Q220.78500000000005 -14.415 222.40500000000003 -15.532499999999999Q224.02500000000003 -16.65 226.27500000000003 -16.65Q228.57000000000005 -16.65 230.13000000000005 -15.54Q231.69000000000005 -14.43 232.49250000000006 -12.495Q233.29500000000004 -10.559999999999999 233.29500000000004 -8.115Q233.29500000000004 -5.7 232.49250000000006 -3.7575000000000003Q231.69000000000005 -1.815 230.13000000000005 -0.6825Q228.57000000000005 0.44999999999999996 226.29000000000005 0.44999999999999996ZM226.62000000000003 -1.9949999999999999Q228.25500000000005 -1.9949999999999999 229.30500000000006 -2.7824999999999998Q230.35500000000005 -3.57 230.85750000000004 -4.9575Q231.36000000000004 -6.345 231.36000000000004 -8.115Q231.36000000000004 -9.915 230.85750000000004 -11.2875Q230.35500000000005 -12.66 229.32000000000005 -13.432500000000001Q228.28500000000005 -14.205 226.69500000000005 -14.205Q225.04500000000004 -14.205 223.97250000000003 -13.395Q222.90000000000003 -12.584999999999999 222.38250000000005 -11.204999999999998Q221.86500000000004 -9.825 221.86500000000004 -8.115Q221.86500000000004 -6.39 222.39000000000004 -5.0024999999999995Q222.91500000000005 -3.6149999999999998 223.97250000000003 -2.8049999999999997Q225.03000000000003 -1.9949999999999999 226.62000000000003 -1.9949999999999999ZM231.36000000000004 0.0V-11.924999999999999H231.06000000000003V-21.599999999999998H233.74500000000003V0.0Z M253.59000000000006 0.0Q252.15000000000006 0.285 250.74750000000006 0.23249999999999998Q249.34500000000006 0.18 248.25000000000006 -0.3375Q247.15500000000006 -0.855 246.58500000000004 -1.95Q246.10500000000005 -2.9099999999999997 246.06750000000005 -3.8925Q246.03000000000006 -4.875 246.03000000000006 -6.12V-20.7H248.70000000000005V-6.24Q248.70000000000005 -5.25 248.72250000000005 -4.545Q248.74500000000006 -3.84 249.03000000000006 -3.33Q249.57000000000005 -2.37 250.74750000000006 -2.205Q251.92500000000004 -2.04 253.59000000000006 -2.295ZM242.74500000000006 -13.995V-16.2H253.59000000000006V-13.995Z M268.7250000000001 0.0V-8.115Q268.7250000000001 -9.27 268.52250000000004 -10.335Q268.32000000000005 -11.4 267.81750000000005 -12.247499999999999Q267.31500000000005 -13.094999999999999 266.4675000000001 -13.59Q265.62000000000006 -14.084999999999999 264.33000000000004 -14.084999999999999Q263.32500000000005 -14.084999999999999 262.50750000000005 -13.747499999999999Q261.69000000000005 -13.41 261.105 -12.719999999999999Q260.52000000000004 -12.03 260.19750000000005 -10.9875Q259.87500000000006 -9.945 259.87500000000006 -8.535L258.12000000000006 -9.075Q258.12000000000006 -11.43 258.9675000000001 -13.1175Q259.81500000000005 -14.805 261.3525000000001 -15.7125Q262.89000000000004 -16.62 264.9750000000001 -16.62Q266.55000000000007 -16.62 267.6600000000001 -16.125Q268.77000000000004 -15.629999999999999 269.50500000000005 -14.8125Q270.24000000000007 -13.995 270.6600000000001 -12.982499999999998Q271.08000000000004 -11.969999999999999 271.25250000000005 -10.927499999999998Q271.42500000000007 -9.885 271.42500000000007 -8.955V0.0ZM257.17500000000007 0.0V-21.599999999999998H259.57500000000005V-9.674999999999999H259.87500000000006V0.0Z M282.64500000000004 0.44999999999999996Q280.26000000000005 0.44999999999999996 278.4825000000001 -0.6075Q276.70500000000004 -1.665 275.71500000000003 -3.5625Q274.725 -5.46 274.725 -7.995Q274.725 -10.65 275.70000000000005 -12.592500000000001Q276.675 -14.535 278.4225 -15.5925Q280.17 -16.65 282.52500000000003 -16.65Q284.97 -16.65 286.6875 -15.524999999999999Q288.40500000000003 -14.399999999999999 289.26750000000004 -12.315Q290.13000000000005 -10.23 290.01000000000005 -7.35H287.31000000000006V-8.31Q287.26500000000004 -11.295 286.095 -12.7725Q284.925 -14.25 282.615 -14.25Q280.14000000000004 -14.25 278.85 -12.66Q277.56000000000006 -11.07 277.56000000000006 -8.1Q277.56000000000006 -5.234999999999999 278.85 -3.6599999999999997Q280.14000000000004 -2.085 282.52500000000003 -2.085Q284.13000000000005 -2.085 285.31500000000005 -2.82Q286.50000000000006 -3.5549999999999997 287.175 -4.935L289.74 -4.05Q288.795 -1.905 286.89750000000004 -0.7275Q285.00000000000006 0.44999999999999996 282.64500000000004 0.44999999999999996ZM276.66 -7.35V-9.495H288.63000000000005V-7.35Z M303.39000000000004 0.0 298.44000000000005 -16.215 301.095 -16.2 304.71000000000004 -4.35 308.355 -16.2H310.71000000000004L314.34000000000003 -4.35L317.97 -16.2H320.61L315.66 0.0H313.44000000000005L309.52500000000003 -12.315L305.61 0.0Z M328.21500000000003 0.44999999999999996Q326.40000000000003 0.44999999999999996 325.1775 -0.21750000000000003Q323.95500000000004 -0.885 323.33250000000004 -1.98Q322.71000000000004 -3.0749999999999997 322.71000000000004 -4.38Q322.71000000000004 -5.654999999999999 323.19750000000005 -6.592499999999999Q323.68500000000006 -7.529999999999999 324.57000000000005 -8.1525Q325.45500000000004 -8.775 326.68500000000006 -9.135Q327.84000000000003 -9.45 329.27250000000004 -9.6825Q330.70500000000004 -9.915 332.17500000000007 -10.11Q333.64500000000004 -10.305 334.9200000000001 -10.485L333.96000000000004 -9.93Q334.00500000000005 -12.09 333.0975000000001 -13.125Q332.19000000000005 -14.16 329.97 -14.16Q328.50000000000006 -14.16 327.39750000000004 -13.4925Q326.2950000000001 -12.825 325.845 -11.325L323.31000000000006 -12.09Q323.89500000000004 -14.219999999999999 325.57500000000005 -15.434999999999999Q327.25500000000005 -16.65 330.00000000000006 -16.65Q332.20500000000004 -16.65 333.7875 -15.862499999999999Q335.37000000000006 -15.075 336.06000000000006 -13.485Q336.40500000000003 -12.735 336.495 -11.8575Q336.58500000000004 -10.98 336.58500000000004 -10.02V0.0H334.21500000000003V-3.885L334.77000000000004 -3.525Q333.855 -1.56 332.21250000000003 -0.555Q330.57000000000005 0.44999999999999996 328.21500000000003 0.44999999999999996ZM328.62000000000006 -1.785Q330.06000000000006 -1.785 331.11750000000006 -2.3024999999999998Q332.17500000000007 -2.82 332.82000000000005 -3.6674999999999995Q333.46500000000003 -4.515 333.66 -5.52Q333.88500000000005 -6.27 333.9075 -7.1925Q333.93000000000006 -8.115 333.93000000000006 -8.61L334.86000000000007 -8.205Q333.55500000000006 -8.025 332.2950000000001 -7.859999999999999Q331.035 -7.694999999999999 329.91 -7.507499999999999Q328.785 -7.319999999999999 327.88500000000005 -7.0649999999999995Q327.225 -6.8549999999999995 326.64750000000004 -6.5249999999999995Q326.07000000000005 -6.194999999999999 325.7175000000001 -5.6775Q325.36500000000007 -5.16 325.36500000000007 -4.395Q325.36500000000007 -3.735 325.70250000000004 -3.135Q326.04 -2.5349999999999997 326.75250000000005 -2.1599999999999997Q327.46500000000003 -1.785 328.62000000000006 -1.785Z M349.83000000000004 0.0Q348.39000000000004 0.285 346.98750000000007 0.23249999999999998Q345.58500000000004 0.18 344.49 -0.3375Q343.39500000000004 -0.855 342.82500000000005 -1.95Q342.3450000000001 -2.9099999999999997 342.30750000000006 -3.8925Q342.27000000000004 -4.875 342.27000000000004 -6.12V-20.7H344.94000000000005V-6.24Q344.94000000000005 -5.25 344.9625000000001 -4.545Q344.98500000000007 -3.84 345.27000000000004 -3.33Q345.81000000000006 -2.37 346.98750000000007 -2.205Q348.1650000000001 -2.04 349.83000000000004 -2.295ZM338.98500000000007 -13.995V-16.2H349.83000000000004V-13.995Z M360.45000000000005 0.44999999999999996Q358.06500000000005 0.44999999999999996 356.2875 -0.6075Q354.51000000000005 -1.665 353.52000000000004 -3.5625Q352.53000000000003 -5.46 352.53000000000003 -7.995Q352.53000000000003 -10.65 353.505 -12.592500000000001Q354.48 -14.535 356.2275 -15.5925Q357.975 -16.65 360.33000000000004 -16.65Q362.77500000000003 -16.65 364.49250000000006 -15.524999999999999Q366.21000000000004 -14.399999999999999 367.07250000000005 -12.315Q367.93500000000006 -10.23 367.81500000000005 -7.35H365.11500000000007V-8.31Q365.07000000000005 -11.295 363.90000000000003 -12.7725Q362.73 -14.25 360.42 -14.25Q357.94500000000005 -14.25 356.6550000000001 -12.66Q355.36500000000007 -11.07 355.36500000000007 -8.1Q355.36500000000007 -5.234999999999999 356.6550000000001 -3.6599999999999997Q357.94500000000005 -2.085 360.33000000000004 -2.085Q361.93500000000006 -2.085 363.12000000000006 -2.82Q364.30500000000006 -3.5549999999999997 364.98 -4.935L367.545 -4.05Q366.6 -1.905 364.70250000000004 -0.7275Q362.80500000000006 0.44999999999999996 360.45000000000005 0.44999999999999996ZM354.46500000000003 -7.35V-9.495H366.43500000000006V-7.35Z M371.44500000000005 0.0V-16.2H373.83000000000004V-12.285L373.44000000000005 -12.795Q373.725 -13.545 374.1825 -14.175Q374.64000000000004 -14.805 375.21000000000004 -15.209999999999999Q375.84000000000003 -15.719999999999999 376.635 -15.989999999999998Q377.43 -16.259999999999998 378.255 -16.3125Q379.08000000000004 -16.365 379.8 -16.2V-13.695Q378.96000000000004 -13.92 377.95500000000004 -13.815Q376.95000000000005 -13.709999999999999 376.095 -13.08Q375.31500000000005 -12.525 374.88750000000005 -11.73Q374.46000000000004 -10.934999999999999 374.2950000000001 -10.0125Q374.13000000000005 -9.09 374.13000000000005 -8.129999999999999V0.0Z M383.25 0.0V-22.05H385.92V0.0Z M391.02 -19.064999999999998V-21.825H393.69V-19.064999999999998ZM391.02 0.0V-16.2H393.69V0.0Z M410.025 0.0V-8.115Q410.025 -9.27 409.8225 -10.335Q409.62 -11.4 409.1175 -12.247499999999999Q408.615 -13.094999999999999 407.7675 -13.59Q406.91999999999996 -14.084999999999999 405.63 -14.084999999999999Q404.625 -14.084999999999999 403.8075 -13.747499999999999Q402.99 -13.41 402.405 -12.719999999999999Q401.82 -12.03 401.4975 -10.9875Q401.175 -9.945 401.175 -8.535L399.41999999999996 -9.075Q399.41999999999996 -11.43 400.2675 -13.1175Q401.115 -14.805 402.65250000000003 -15.7125Q404.19 -16.62 406.275 -16.62Q407.84999999999997 -16.62 408.96 -16.125Q410.07 -15.629999999999999 410.80499999999995 -14.8125Q411.53999999999996 -13.995 411.96 -12.982499999999998Q412.38 -11.969999999999999 412.5525 -10.927499999999998Q412.72499999999997 -9.885 412.72499999999997 -8.955V0.0ZM398.47499999999997 0.0V-16.2H400.875V-11.865H401.175V0.0Z M423.945 0.44999999999999996Q421.56 0.44999999999999996 419.7825 -0.6075Q418.005 -1.665 417.015 -3.5625Q416.025 -5.46 416.025 -7.995Q416.025 -10.65 417.0 -12.592500000000001Q417.97499999999997 -14.535 419.72249999999997 -15.5925Q421.46999999999997 -16.65 423.825 -16.65Q426.27 -16.65 427.98749999999995 -15.524999999999999Q429.705 -14.399999999999999 430.5675 -12.315Q431.43 -10.23 431.31 -7.35H428.61V-8.31Q428.565 -11.295 427.395 -12.7725Q426.22499999999997 -14.25 423.91499999999996 -14.25Q421.44 -14.25 420.15 -12.66Q418.86 -11.07 418.86 -8.1Q418.86 -5.234999999999999 420.15 -3.6599999999999997Q421.44 -2.085 423.825 -2.085Q425.43 -2.085 426.615 -2.82Q427.8 -3.5549999999999997 428.47499999999997 -4.935L431.03999999999996 -4.05Q430.09499999999997 -1.905 428.1975 -0.7275Q426.3 0.44999999999999996 423.945 0.44999999999999996ZM417.96 -7.35V-9.495H429.93V-7.35Z" fill="#24ADDB"/>
</svg>
