<svg xmlns="http://www.w3.org/2000/svg" viewBox="0 0 642 126" width="642" height="126">

<defs><linearGradient id="hp-on-dark-line" gradientUnits="userSpaceOnUse" x1="0" y1="0" x2="100" y2="0"><stop offset="0" stop-color="#BFF3F8"/><stop offset="1" stop-color="#5BE6F2"/></linearGradient><linearGradient id="hp-on-dark-depth" gradientUnits="userSpaceOnUse" x1="0" y1="40" x2="0" y2="92"><stop offset="0" stop-color="#5BE6F2"/><stop offset="0.55" stop-color="#22B8D3"/><stop offset="1" stop-color="#1266A0"/></linearGradient></defs>
<g transform="translate(10.0,-30.438) scale(1.6849)"><path d="M5,31.0 C25,31.0 35,25.0 50,25.0 S75,31.0 95,31.0" fill="none" stroke="url(#hp-on-dark-line)" stroke-width="7" stroke-linecap="round"/>
<path d="M64.38,54.01 A16,16 0 0 1 35.62,54.01" fill="none" stroke="url(#hp-on-dark-depth)" stroke-width="5.6" stroke-linecap="round" opacity="1.0"/>
<path d="M75.03,57.11 A27,27 0 0 1 24.97,57.11" fill="none" stroke="url(#hp-on-dark-depth)" stroke-width="4.6" stroke-linecap="round" opacity="0.78"/>
<path d="M86.14,58.74 A38,38 0 0 1 13.86,58.74" fill="none" stroke="url(#hp-on-dark-depth)" stroke-width="3.6" stroke-linecap="round" opacity="0.52"/>
<circle cx="50.0" cy="47.0" r="8.8" fill="none" stroke="#2BD4E6" stroke-width="1.8" opacity="0.9"/>
<circle cx="50.0" cy="47.0" r="4.8" fill="#7DF0FA"/></g>
<path transform="translate(210.34,72.63)" d="M20.34 1.14Q14.52 1.14 10.53 -0.7200000000000001Q6.54 -2.58 4.4399999999999995 -5.85Q2.34 -9.12 2.34 -13.26H10.68Q10.68 -11.52 11.64 -9.87Q12.6 -8.219999999999999 14.73 -7.199999999999999Q16.86 -6.18 20.34 -6.18Q23.46 -6.18 25.560000000000002 -7.08Q27.66 -7.9799999999999995 28.68 -9.45Q29.7 -10.92 29.7 -12.78Q29.7 -15.12 27.72 -16.529999999999998Q25.74 -17.939999999999998 21.599999999999998 -18.3L17.759999999999998 -18.599999999999998Q11.459999999999999 -19.14 7.709999999999999 -22.53Q3.96 -25.919999999999998 3.96 -31.5Q3.96 -35.699999999999996 5.9399999999999995 -38.73Q7.92 -41.76 11.489999999999998 -43.41Q15.059999999999999 -45.059999999999995 19.86 -45.059999999999995Q24.84 -45.059999999999995 28.439999999999998 -43.31999999999999Q32.04 -41.58 34.019999999999996 -38.43Q36.0 -35.28 36.0 -31.02H27.66Q27.66 -32.82 26.79 -34.349999999999994Q25.919999999999998 -35.879999999999995 24.21 -36.81Q22.5 -37.74 19.86 -37.74Q17.34 -37.74 15.66 -36.9Q13.979999999999999 -36.059999999999995 13.139999999999999 -34.62Q12.299999999999999 -33.18 12.299999999999999 -31.5Q12.299999999999999 -29.459999999999997 13.799999999999999 -27.93Q15.299999999999999 -26.4 18.54 -26.16L22.38 -25.8Q27.06 -25.439999999999998 30.6 -23.82Q34.14 -22.2 36.09 -19.439999999999998Q38.04 -16.68 38.04 -12.78Q38.04 -8.64 35.879999999999995 -5.49Q33.72 -2.34 29.729999999999997 -0.6Q25.74 1.14 20.34 1.14Z M48.839999999999996 0.0V-43.8H57.18V0.0ZM55.98 0.0V-7.199999999999999H75.84V0.0ZM55.98 -18.66V-25.86H74.28V-18.66ZM55.98 -36.6V-43.8H75.36V-36.6Z M87.6 0.0V-44.1H96.11999999999999V0.0ZM114.35999999999999 0.0 100.91999999999999 -19.08H110.45999999999998L124.32 0.0ZM93.6 -14.639999999999999V-21.54H104.75999999999999Q107.1 -21.54 108.80999999999999 -22.5Q110.51999999999998 -23.46 111.47999999999999 -25.2Q112.43999999999998 -26.939999999999998 112.43999999999998 -29.16Q112.43999999999998 -31.439999999999998 111.47999999999999 -33.18Q110.51999999999998 -34.92 108.80999999999999 -35.879999999999995Q107.1 -36.839999999999996 104.75999999999999 -36.839999999999996H93.6V-44.1H103.85999999999999Q109.13999999999999 -44.1 113.00999999999999 -42.54Q116.88 -40.98 118.97999999999999 -37.8Q121.07999999999998 -34.62 121.07999999999998 -29.82V-28.86Q121.07999999999998 -24.0 118.94999999999999 -20.88Q116.82 -17.759999999999998 112.97999999999999 -16.2Q109.13999999999999 -14.639999999999999 103.85999999999999 -14.639999999999999Z M133.79999999999998 0.0V-43.8H142.14V0.0ZM140.93999999999997 0.0V-7.199999999999999H160.79999999999998V0.0ZM140.93999999999997 -18.66V-25.86H159.23999999999998V-18.66ZM140.93999999999997 -36.6V-43.8H160.31999999999996V-36.6Z M172.55999999999997 0.0V-43.8H186.53999999999996L204.95999999999998 -7.08H206.93999999999997L205.73999999999995 -6.0V-43.8H213.77999999999997V0.0H199.73999999999995L181.31999999999996 -36.72H179.27999999999997L180.47999999999996 -37.8V0.0Z M227.69999999999996 0.0V-43.8H236.21999999999994V0.0Z M258.78 0.0V-37.5H267.29999999999995V0.0ZM246.11999999999995 -36.3V-43.8H279.9599999999999V-36.3Z M289.73999999999995 0.0V-43.8H298.08V0.0ZM296.88 0.0V-7.199999999999999H316.73999999999995V0.0ZM296.88 -18.66V-25.86H315.17999999999995V-18.66ZM296.88 -36.6V-43.8H316.26V-36.6Z M348.23999999999995 1.14Q342.29999999999995 1.14 338.03999999999996 -0.9600000000000001Q333.78 -3.06 331.10999999999996 -6.42Q328.43999999999994 -9.78 327.17999999999995 -13.739999999999998Q325.91999999999996 -17.7 325.91999999999996 -21.36V-22.68Q325.91999999999996 -26.759999999999998 327.2099999999999 -30.72Q328.49999999999994 -34.68 331.19999999999993 -37.92Q333.9 -41.16 338.06999999999994 -43.11Q342.23999999999995 -45.059999999999995 347.93999999999994 -45.059999999999995Q353.87999999999994 -45.059999999999995 358.28999999999996 -42.92999999999999Q362.7 -40.8 365.34 -36.93Q367.97999999999996 -33.06 368.52 -27.9H359.93999999999994Q359.46 -30.9 357.80999999999995 -32.97Q356.15999999999997 -35.04 353.64 -36.09Q351.11999999999995 -37.14 347.93999999999994 -37.14Q344.7 -37.14 342.17999999999995 -36.03Q339.65999999999997 -34.92 337.97999999999996 -32.88Q336.29999999999995 -30.84 335.42999999999995 -28.08Q334.55999999999995 -25.32 334.55999999999995 -21.96Q334.55999999999995 -18.72 335.42999999999995 -15.959999999999999Q336.29999999999995 -13.2 338.03999999999996 -11.129999999999999Q339.78 -9.06 342.3299999999999 -7.92Q344.87999999999994 -6.779999999999999 348.23999999999995 -6.779999999999999Q353.15999999999997 -6.779999999999999 356.54999999999995 -9.209999999999999Q359.93999999999994 -11.639999999999999 360.65999999999997 -16.02H369.23999999999995Q368.64 -11.34 366.05999999999995 -7.4399999999999995Q363.47999999999996 -3.54 358.97999999999996 -1.2000000000000002Q354.47999999999996 1.14 348.23999999999995 1.14Z M408.17999999999995 0.0V-43.8H416.69999999999993V0.0ZM379.43999999999994 0.0V-43.8H387.96V0.0ZM386.4 -18.18V-25.68H409.73999999999995V-18.18Z" fill="#F4F8FB"/>
<path transform="translate(210.34,97.32)" d="M5.830816100828413 0.2642363791916199Q4.465594808338376 0.2642363791916199 3.3690138346931535 -0.20698516370010223Q2.272432861047931 -0.6782067065918244 1.563398576883751 -1.5545906975773638Q0.854364292719571 -2.430974688562903 0.6429751893662751 -3.637654153537967L2.563092878158713 -3.928314170648749Q2.853752895269495 -2.7656741022056215 3.778580222440165 -2.1182949731861527Q4.7034075496108345 -1.470915844166684 5.93651065250506 -1.470915844166684Q6.702796152160758 -1.470915844166684 7.345771341527033 -1.7131325250923357Q7.988746530893308 -1.9553492060179871 8.380697160027545 -2.4089549902969347Q8.77264778916178 -2.8625607745758823 8.77264778916178 -3.49672808463577Q8.77264778916178 -3.8402353775848757 8.653741418525552 -4.104471756776496Q8.534835047889322 -4.368708135968116 8.32784988418922 -4.566885420361831Q8.120864720489118 -4.765062704755546 7.825800763725143 -4.910392713310936Q7.530736806961167 -5.055722721866327 7.178421634705674 -5.161417273542975L3.928314170648749 -6.121476117939194Q3.4526886881038332 -6.262402186841391 2.9594474469461427 -6.487003109154268Q2.466206205788452 -6.711604031467146 2.0566398180414414 -7.07713102268222Q1.6470734302944308 -7.442658013897294 1.391644930409198 -7.9843425912401145Q1.1362164305239655 -8.526027168582935 1.1362164305239655 -9.30112054754502Q1.1362164305239655 -10.472568495294535 1.7395561630114975 -11.287297331135363Q2.3428958954990295 -12.102026166976191 3.373417774346347 -12.52040043402959Q4.403939653193665 -12.938774701082988 5.681082152619828 -12.938774701082988Q6.967032531352378 -12.921158942470212 7.9843425912401145 -12.480764977150846Q9.00165265112785 -12.04037101183148 9.67545541806648 -11.216834296684265Q10.349258185005112 -10.393297581537048 10.604686684890344 -9.221849633787535L8.631721720259582 -8.887150220144816Q8.499603530663773 -9.60058844396219 8.068017444650794 -10.115849383385848Q7.6364313586378145 -10.631110322809507 7.0110719278843145 -10.908558520960707Q6.385712497130814 -11.186006719111909 5.654658514700666 -11.194814598418295Q4.95002817018968 -11.21243035703107 4.364304196314922 -10.983425495065Q3.7785802224401643 -10.75442063309893 3.430668989837865 -10.340450305698724Q3.0827577572355653 -9.92647997829852 3.0827577572355653 -9.389199340608894Q3.0827577572355653 -8.860726582225654 3.391033532959122 -8.534835047889324Q3.6993093086826785 -8.208943513552992 4.152915092961626 -8.019574108465664Q4.606520877240573 -7.830204703378336 5.055722721866327 -7.7068943930889136L7.398618617365357 -7.046303445109864Q7.839012582684724 -6.922993134820441 8.398312918640318 -6.716007971120339Q8.957613254595914 -6.509022807420236 9.48168207332596 -6.139091876551969Q10.005750892056007 -5.769160945683701 10.349258185005112 -5.157013333889782Q10.692765477954218 -4.544865722095862 10.692765477954218 -3.6200383949251926Q10.692765477954218 -2.6599795505289734 10.305218788473177 -1.9333295077520187Q9.917672098992133 -1.2066794649750643 9.243869332053503 -0.7178421634705674Q8.570066565114871 -0.22900486196607056 7.689278634476139 0.017615758612774673Q6.808490703837406 0.2642363791916199 5.830816100828413 0.2642363791916199Z M16.444310665025146 0.0V-12.683346201197756H24.54755962690149V-10.94819397783945H18.285157440060097V-7.389810738058969H23.49061411013501V-5.654658514700666H18.285157440060097V-1.7351522233583039H24.54755962690149V0.0Z M30.536917555244873 0.0V-12.683346201197756H35.663103311562296Q35.848068776996435 -12.683346201197756 36.121113035494446 -12.670134382238174Q36.39415729399245 -12.656922563278593 36.640777914571295 -12.612883166746656Q37.69772343133777 -12.445533459925297 38.40675771550195 -11.890637063622895Q39.11579199966613 -11.335740667320493 39.46810717192162 -10.490184253907309Q39.82042234417712 -9.644627840494126 39.82042234417712 -8.622913840953196Q39.82042234417712 -7.107958600254575 39.045328965215035 -6.011377626609352Q38.27023558625295 -4.91479665296413 36.72004882832878 -4.641752394466123L35.971379087285854 -4.55367360140225H32.377764330279824V0.0ZM37.953151931223005 0.0 35.451714208209005 -5.161417273542975 37.31017674185673 -5.637042756087891 40.058235085449574 0.0ZM32.377764330279824 -6.297633704066941H35.5926402771112Q35.768797863238945 -6.297633704066941 35.98459090624544 -6.3152494626797155Q36.20038394925193 -6.33286522129249 36.39415729399245 -6.376904617824427Q36.957861569601235 -6.509022807420236 37.30136886255034 -6.865741919328924Q37.644876155499446 -7.222461031237611 37.79461010370803 -7.689278634476139Q37.944344051916616 -8.156096237714667 37.944344051916616 -8.622913840953196Q37.944344051916616 -9.089731444191724 37.79461010370803 -9.552145107777058Q37.644876155499446 -10.014558771362394 37.30136886255034 -10.37127788327108Q36.957861569601235 -10.727996995179767 36.39415729399245 -10.860115184775578Q36.20038394925193 -10.912962460613901 35.98459090624544 -10.930578219226675Q35.768797863238945 -10.94819397783945 35.5926402771112 -10.94819397783945H32.377764330279824Z M45.87143542766521 0.0V-12.683346201197756H53.97468438954155V-10.94819397783945H47.712282202700166V-7.389810738058969H52.917738872775075V-5.654658514700666H47.712282202700166V-1.7351522233583039H53.97468438954155V0.0Z M59.96404231788494 0.0V-12.683346201197756H61.83131273083905L68.07609915906767 -3.258915343363312V-12.683346201197756H69.94336957202178V0.0H68.07609915906767L61.83131273083905 -9.43323873714083V0.0Z M76.46120025874842 0.0V-12.683346201197756H78.30204703378337V0.0Z M84.81987772050998 0.0V-12.683346201197756H88.79223128769067Q88.96838887381841 -12.683346201197756 89.44841829601653 -12.674538321891369Q89.92844771821464 -12.66573044258498 90.368841683534 -12.604075287440269Q91.85737328631346 -12.419109822006135 92.87468334620121 -11.538321891367403Q93.89199340608894 -10.657533960728669 94.4116582851658 -9.305524487198214Q94.93132316424264 -7.953515013667759 94.93132316424264 -6.341673100598878Q94.93132316424264 -4.721023308223609 94.4116582851658 -3.3690138346931535Q93.89199340608894 -2.0170043611626984 92.87468334620121 -1.1406203701771591Q91.85737328631346 -0.2642363791916199 90.368841683534 -0.07927091375748596Q89.92844771821464 -0.01761575861277466 89.44841829601653 -0.00880787930638733Q88.96838887381841 0.0 88.79223128769067 0.0ZM86.70476389207687 -1.7527679819710786H88.79223128769067Q89.09169918410784 -1.7527679819710786 89.50566951150805 -1.7703837405838532Q89.91963983890825 -1.787999499196628 90.2367234939382 -1.840846775034952Q91.2055902176408 -2.0258122404690857 91.80892995012833 -2.681999248794942Q92.41226968261586 -3.338186257120798 92.69412182042026 -4.298245101517017Q92.97597395822466 -5.2583039459132355 92.97597395822466 -6.341673100598878Q92.97597395822466 -7.460273772510068 92.68531394111388 -8.415928677253094Q92.3946539240031 -9.371583581996118 91.79131419151557 -10.018962711015586Q91.18797445902803 -10.666341840035056 90.2367234939382 -10.842499426162803Q89.91963983890825 -10.904154581307514 89.50126557185484 -10.917366400267095Q89.08289130480145 -10.930578219226676 88.79223128769067 -10.930578219226676H86.70476389207687Z M99.97823800680257 0.0 104.10032552219185 -12.683346201197756H106.75149719341444L110.8735847088037 0.0H108.96227489931765L105.16607891826472 -11.573553408592952H105.64170440080963L101.88954781628863 0.0ZM102.1185526782547 -2.8625607745758823V-4.588905118627799H108.74207791665796V-2.8625607745758823Z M116.33446987876384 0.0V-12.683346201197756H120.30682344594453Q120.48298103207227 -12.683346201197756 120.96301045427039 -12.674538321891369Q121.4430398764685 -12.66573044258498 121.88343384178786 -12.604075287440269Q123.37196544456732 -12.419109822006135 124.38927550445507 -11.538321891367403Q125.4065855643428 -10.657533960728669 125.92625044341966 -9.305524487198214Q126.4459153224965 -7.953515013667759 126.4459153224965 -6.341673100598878Q126.4459153224965 -4.721023308223609 125.92625044341966 -3.3690138346931535Q125.4065855643428 -2.0170043611626984 124.38927550445507 -1.1406203701771591Q123.37196544456732 -0.2642363791916199 121.88343384178786 -0.07927091375748596Q121.4430398764685 -0.01761575861277466 120.96301045427039 -0.00880787930638733Q120.48298103207227 0.0 120.30682344594453 0.0ZM118.21935605033073 -1.7527679819710786H120.30682344594453Q120.6062913423617 -1.7527679819710786 121.02026166976191 -1.7703837405838532Q121.43423199716212 -1.787999499196628 121.75131565219206 -1.840846775034952Q122.72018237589467 -2.0258122404690857 123.32352210838219 -2.681999248794942Q123.92686184086972 -3.338186257120798 124.20871397867413 -4.298245101517017Q124.49056611647852 -5.2583039459132355 124.49056611647852 -6.341673100598878Q124.49056611647852 -7.460273772510068 124.19990609936774 -8.415928677253094Q123.90924608225696 -9.371583581996118 123.30590634976943 -10.018962711015586Q122.70256661728189 -10.666341840035056 121.75131565219206 -10.842499426162803Q121.43423199716212 -10.904154581307514 121.0158577301087 -10.917366400267095Q120.59748346305531 -10.930578219226676 120.30682344594453 -10.930578219226676H118.21935605033073Z M132.37361809569518 0.0V-12.683346201197756H140.47686705757152V-10.94819397783945H134.21446487073013V-7.389810738058969H139.41992154080503V-5.654658514700666H134.21446487073013V-1.7351522233583039H140.47686705757152V0.0Z M152.9840556726415 0.0 157.10614318803076 -12.683346201197756H159.75731485925334L163.8794023746426 0.0H161.96809256515658L158.17189658410362 -11.573553408592952H158.64752206664855L154.89536548212754 0.0ZM155.12437034409362 -2.8625607745758823V-4.588905118627799H161.74789558249688V-2.8625607745758823Z M169.51644513073052 0.0V-12.683346201197756H171.35729190576546V-1.7351522233583039H177.10002921353V0.0Z M187.47571103645427 -14.092606890219727H186.03121883020677L187.29074557102015 -17.175364647455293H188.73523777726766ZM182.47283559042629 0.0V-12.683346201197756H190.57608455230263V-10.94819397783945H184.31368236546123V-7.389810738058969H189.51913903553614V-5.654658514700666H184.31368236546123V-1.7351522233583039H190.57608455230263V0.0Z M196.56544248064603 0.0V-12.683346201197756H198.23013166955323L202.8278446674874 -3.1444129123802766L207.39913402750244 -12.683346201197756H209.08143897502242V-0.00880787930638733H207.33747887235774V-8.684568996097907L203.24181499488762 0.0H202.40506646078083L198.3005947040043 -8.684568996097907V0.0Z M222.82173069298665 0.0V-12.683346201197756H226.79408426016732Q226.97024184629507 -12.683346201197756 227.45027126849317 -12.674538321891369Q227.9303006906913 -12.66573044258498 228.37069465601067 -12.604075287440269Q229.85922625879013 -12.419109822006135 230.87653631867786 -11.538321891367403Q231.8938463785656 -10.657533960728669 232.41351125764243 -9.305524487198214Q232.93317613671928 -7.953515013667759 232.93317613671928 -6.341673100598878Q232.93317613671928 -4.721023308223609 232.41351125764243 -3.3690138346931535Q231.8938463785656 -2.0170043611626984 230.87653631867786 -1.1406203701771591Q229.85922625879013 -0.2642363791916199 228.37069465601067 -0.07927091375748596Q227.9303006906913 -0.01761575861277466 227.45027126849317 -0.00880787930638733Q226.97024184629507 0.0 226.79408426016732 0.0ZM224.70661686455352 -1.7527679819710786H226.79408426016732Q227.0935521565845 -1.7527679819710786 227.5075224839847 -1.7703837405838532Q227.9214928113849 -1.787999499196628 228.23857646641486 -1.840846775034952Q229.20744319011746 -2.0258122404690857 229.81078292260497 -2.681999248794942Q230.4141226550925 -3.338186257120798 230.6959747928969 -4.298245101517017Q230.9778269307013 -5.2583039459132355 230.9778269307013 -6.341673100598878Q230.9778269307013 -7.460273772510068 230.68716691359052 -8.415928677253094Q230.39650689647974 -9.371583581996118 229.79316716399222 -10.018962711015586Q229.18982743150468 -10.666341840035056 228.23857646641486 -10.842499426162803Q227.9214928113849 -10.904154581307514 227.5031185443315 -10.917366400267095Q227.0847442772781 -10.930578219226676 226.79408426016732 -10.930578219226676H224.70661686455352Z M237.98009097927923 0.0 242.1021784946685 -12.683346201197756H244.75335016589108L248.87543768128035 0.0H246.96412787179432L243.16793189074136 -11.573553408592952H243.64355737328628L239.89140078876528 0.0ZM240.12040565073136 -2.8625607745758823V-4.588905118627799H246.74393088913462V-2.8625607745758823Z M261.9110990547336 0.0V-12.683346201197756H263.7519458297686V-1.7351522233583039H269.4946831375331V0.0Z M275.0436471005571 0.0V-12.683346201197756H276.8844938755921V0.0Z M283.4023245623187 0.0V-12.683346201197756H285.2695949752728L291.51438140350143 -3.258915343363312V-12.683346201197756H293.38165181645553V0.0H291.51438140350143L285.2695949752728 -9.43323873714083V0.0Z M299.7233249170544 0.0V-12.683346201197756H301.56417169208936V-7.213653151931223H307.90584479268824V-12.683346201197756H309.7554994470296V0.0H307.90584479268824V-5.478500928572919H301.56417169208936V0.0Z M315.2163846169897 0.0 319.338472132379 -12.683346201197756H321.9896438036016L326.11173131899085 0.0H324.2004215095048L320.4042255284519 -11.573553408592952H320.8798510109968L317.1276944264758 0.0ZM317.35669928844186 -2.8625607745758823V-4.588905118627799H323.9802245268451V-2.8625607745758823Z M338.9712351063163 0.0V-12.683346201197756H342.943588673497Q343.1197462596248 -12.683346201197756 343.59977568182285 -12.674538321891369Q344.079805104021 -12.66573044258498 344.5201990693403 -12.604075287440269Q346.0087306721198 -12.419109822006135 347.0260407320075 -11.538321891367403Q348.04335079189525 -10.657533960728669 348.5630156709721 -9.305524487198214Q349.08268055004896 -7.953515013667759 349.08268055004896 -6.341673100598878Q349.08268055004896 -4.721023308223609 348.5630156709721 -3.3690138346931535Q348.04335079189525 -2.0170043611626984 347.0260407320075 -1.1406203701771591Q346.0087306721198 -0.2642363791916199 344.5201990693403 -0.07927091375748596Q344.079805104021 -0.01761575861277466 343.59977568182285 -0.00880787930638733Q343.1197462596248 0.0 342.943588673497 0.0ZM340.85612127788323 -1.7527679819710786H342.943588673497Q343.2430565699142 -1.7527679819710786 343.6570268973144 -1.7703837405838532Q344.0709972247146 -1.787999499196628 344.3880808797445 -1.840846775034952Q345.3569476034471 -2.0258122404690857 345.96028733593465 -2.681999248794942Q346.5636270684222 -3.338186257120798 346.8454792062266 -4.298245101517017Q347.127331344031 -5.2583039459132355 347.127331344031 -6.341673100598878Q347.127331344031 -7.460273772510068 346.8366713269202 -8.415928677253094Q346.54601130980944 -9.371583581996118 345.9426715773219 -10.018962711015586Q345.33933184483436 -10.666341840035056 344.3880808797445 -10.842499426162803Q344.0709972247146 -10.904154581307514 343.65262295766115 -10.917366400267095Q343.2342486906078 -10.930578219226676 342.943588673497 -10.930578219226676H340.85612127788323Z M354.8342257371199 -9.512509650898316V-12.683346201197756H356.6750725121548V-9.512509650898316Z M368.662596248148 -14.092606890219727H367.21810404190046L368.47763078271385 -17.175364647455293H369.9221229889614ZM362.31211526824274 0.0 366.43420278363203 -12.683346201197756H369.0853744548546L373.20746197024386 0.0H371.2961521607578L367.4999561797049 -11.573553408592952H367.9755816622498L364.2234250777288 0.0ZM364.45242993969487 -2.8625607745758823V-4.588905118627799H371.0759551780981V-2.8625607745758823Z M383.8561880516661 0.2642363791916199Q382.57904555223996 0.2642363791916199 381.5044842768607 -0.18056152578094026Q380.4299230014814 -0.6253594307535004 379.6372138639066 -1.4797237234730714Q378.8445047263317 -2.3340880161926423 378.40411076101236 -3.5583832397804813Q377.963716795693 -4.78267846336832 377.963716795693 -6.341673100598878Q377.963716795693 -8.393908978987126 378.71238653673595 -9.869228762807003Q379.4610562777788 -11.34454854662688 380.7910460530433 -12.141661623854933Q382.1210358283078 -12.938774701082988 383.8561880516661 -12.938774701082988Q386.0933893954885 -12.938774701082988 387.42778311040615 -11.899444942929282Q388.7621768253239 -10.860115184775578 389.2466101871752 -9.028076289047013L387.3793397742211 -8.693376875404294Q386.99179308474004 -9.82959330592826 386.12862091271404 -10.507800012520084Q385.2654487406881 -11.186006719111909 383.96188260334276 -11.194814598418295Q382.6142770694655 -11.203622477724684 381.7202773198672 -10.595878805583958Q380.82627757026887 -9.988135133443231 380.3770757256431 -8.891554159798009Q379.9278738810174 -7.794973186152787 379.919066001711 -6.341673100598878Q379.91025812240457 -4.8883730150449685 380.3594599670304 -3.8005999207061327Q380.8086618116561 -2.7128268263672974 381.7114694405608 -2.1050831542265716Q382.6142770694655 -1.497339482085846 383.96188260334276 -1.4885316027794588Q385.0452517580284 -1.470915844166684 385.8247490766437 -1.8892901112200824Q386.604246395259 -2.3076643782734805 387.06225611919115 -3.117989274461115Q387.52026584312324 -3.928314170648749 387.65238403271906 -5.1085699977046515H385.1861778269306V-6.588293721177723H389.60773323873707Q389.6253489973498 -6.4297518936627505 389.6341568766562 -6.169919454124324Q389.6429647559626 -5.910087014585899 389.6429647559626 -5.8396239801347996Q389.6429647559626 -4.078048118857334 388.96475804937074 -2.695211067754523Q388.2865513427789 -1.3123740166517122 386.99179308474004 -0.5240688187300462Q385.6970348267011 0.2642363791916199 383.8561880516661 0.2642363791916199Z M400.3357302339168 0.2642363791916199Q398.84719863113736 0.2642363791916199 397.7065782609602 -0.3479112326022995Q396.565957890783 -0.9600588443962189 395.92298270141674 -2.065447697347829Q395.2800075120505 -3.170836550299439 395.2800075120505 -4.668176032385285V-12.674538321891367L397.1472779250046 -12.683346201197756V-4.765062704755546Q397.1472779250046 -3.954737808567911 397.42032218350255 -3.338186257120798Q397.6933664420006 -2.7216347056736847 398.15137616593273 -2.30766437827348Q398.6093858898649 -1.8936940508732758 399.17749410512687 -1.68230494751998Q399.74560232038885 -1.470915844166684 400.3357302339168 -1.470915844166684Q400.93466602675113 -1.470915844166684 401.5027742420131 -1.6867088871731737Q402.0708824572751 -1.9025019301796633 402.52889218120725 -2.3164722575798677Q402.9869019051394 -2.7304425849800724 403.2555422239842 -3.3469941364271856Q403.524182542829 -3.9635456878742983 403.524182542829 -4.765062704755546V-12.683346201197756H405.3914529557831V-4.668176032385285Q405.3914529557831 -3.179644429605826 404.74847776641684 -2.0698516370010225Q404.1055025770506 -0.9600588443962189 402.9648822068734 -0.3479112326022995Q401.8242618366963 0.2642363791916199 400.3357302339168 0.2642363791916199Z M410.85233812574324 0.0 414.97442564113254 -12.683346201197756H417.6255973123551L421.74768482774437 0.0H419.8363750182583L416.0401790372054 -11.573553408592952H416.5158045197503L412.7636479352293 0.0ZM412.9926527971954 -2.8625607745758823V-4.588905118627799H419.61617803559864V-2.8625607745758823Z" fill="#2BD4E6"/>
</svg>
