<svg xmlns="http://www.w3.org/2000/svg" viewBox="0 0 526 103" width="526" height="103">

<defs><radialGradient id="hc-on-dark-core" gradientUnits="userSpaceOnUse" cx="50.0" cy="50.0" r="4.8"><stop offset="0" stop-color="#FFFFFF"/><stop offset="0.32" stop-color="#CFF5FC"/><stop offset="0.72" stop-color="#5FCBEA"/><stop offset="1" stop-color="#24ADDB"/></radialGradient><radialGradient id="hc-on-dark-halo" gradientUnits="userSpaceOnUse" cx="50.0" cy="50.0" r="13.5"><stop offset="0.320" stop-color="#24ADDB" stop-opacity="0.62"/><stop offset="0.62" stop-color="#24ADDB" stop-opacity="0.18"/><stop offset="1" stop-color="#24ADDB" stop-opacity="0"/></radialGradient></defs>
<g transform="translate(10.0,-40.166) scale(1.4626)"><path d="M3.00,45.10 C3.33,45.13 4.19,45.20 5.00,45.27 C5.81,45.35 6.86,45.45 7.86,45.56 C8.87,45.66 10.03,45.79 11.04,45.90 C12.06,46.01 13.05,46.11 13.97,46.22 C14.89,46.33 15.70,46.44 16.56,46.56 C17.42,46.68 18.28,46.83 19.12,46.94 C19.97,47.05 20.81,47.17 21.64,47.24 C22.46,47.32 23.30,47.36 24.07,47.37 C24.85,47.38 25.57,47.36 26.30,47.33 C27.02,47.29 27.71,47.24 28.41,47.14 C29.12,47.05 29.81,46.93 30.52,46.76 C31.24,46.59 31.97,46.43 32.70,46.13 C33.44,45.82 34.24,45.36 34.94,44.93 C35.65,44.49 36.29,43.96 36.95,43.50 C37.60,43.03 38.22,42.54 38.86,42.13 C39.50,41.71 40.07,41.39 40.78,41.02 C41.48,40.66 42.32,40.28 43.11,39.93 C43.90,39.58 44.72,39.20 45.51,38.91 C46.31,38.61 47.11,38.34 47.86,38.17 C48.61,38.00 49.29,37.90 50.00,37.90 C50.71,37.90 51.39,38.00 52.14,38.17 C52.89,38.34 53.69,38.61 54.49,38.91 C55.28,39.20 56.10,39.58 56.89,39.93 C57.68,40.28 58.52,40.66 59.22,41.02 C59.93,41.39 60.50,41.71 61.14,42.13 C61.78,42.54 62.40,43.03 63.05,43.50 C63.71,43.96 64.35,44.49 65.06,44.93 C65.76,45.36 66.56,45.82 67.30,46.13 C68.03,46.43 68.76,46.59 69.48,46.76 C70.19,46.93 70.88,47.05 71.59,47.14 C72.29,47.24 72.98,47.29 73.70,47.33 C74.43,47.36 75.15,47.38 75.93,47.37 C76.70,47.36 77.54,47.32 78.36,47.24 C79.19,47.17 80.03,47.05 80.88,46.94 C81.72,46.83 82.58,46.68 83.44,46.56 C84.30,46.44 85.11,46.33 86.03,46.22 C86.95,46.11 87.94,46.01 88.96,45.90 C89.97,45.79 91.13,45.66 92.14,45.56 C93.14,45.45 94.19,45.35 95.00,45.27 C95.81,45.20 96.67,45.13 97.00,45.10 L97.00,45.10 C96.67,45.11 95.81,45.13 95.00,45.15 C94.18,45.16 93.13,45.17 92.11,45.18 C91.10,45.19 89.94,45.19 88.92,45.19 C87.89,45.19 86.90,45.18 85.97,45.18 C85.04,45.18 84.20,45.19 83.33,45.20 C82.46,45.22 81.59,45.25 80.75,45.25 C79.91,45.25 79.09,45.26 78.31,45.22 C77.53,45.18 76.79,45.12 76.07,45.03 C75.36,44.94 74.67,44.82 74.01,44.69 C73.36,44.57 72.76,44.43 72.16,44.26 C71.57,44.09 71.00,43.90 70.43,43.67 C69.85,43.44 69.27,43.17 68.70,42.87 C68.14,42.58 67.62,42.30 67.04,41.92 C66.45,41.54 65.85,41.07 65.20,40.60 C64.55,40.14 63.88,39.60 63.14,39.13 C62.40,38.66 61.57,38.19 60.78,37.78 C59.98,37.36 59.23,37.03 58.39,36.66 C57.56,36.29 56.67,35.87 55.76,35.54 C54.86,35.21 53.92,34.87 52.95,34.67 C51.99,34.46 50.98,34.30 50.00,34.30 C49.02,34.30 48.01,34.46 47.05,34.67 C46.08,34.87 45.14,35.21 44.24,35.54 C43.33,35.87 42.44,36.29 41.61,36.66 C40.77,37.03 40.02,37.36 39.22,37.78 C38.43,38.19 37.60,38.66 36.86,39.13 C36.12,39.60 35.45,40.14 34.80,40.60 C34.15,41.07 33.55,41.54 32.96,41.92 C32.38,42.30 31.86,42.58 31.30,42.87 C30.73,43.17 30.15,43.44 29.57,43.67 C29.00,43.90 28.43,44.09 27.84,44.26 C27.24,44.43 26.64,44.57 25.99,44.69 C25.33,44.82 24.64,44.94 23.93,45.03 C23.21,45.12 22.47,45.18 21.69,45.22 C20.91,45.26 20.09,45.25 19.25,45.25 C18.41,45.25 17.54,45.22 16.67,45.20 C15.80,45.19 14.96,45.18 14.03,45.18 C13.10,45.18 12.11,45.19 11.08,45.19 C10.06,45.19 8.90,45.19 7.89,45.18 C6.87,45.17 5.82,45.16 5.00,45.15 C4.19,45.13 3.33,45.11 3.00,45.10 Z" fill="#24ADDB"/>
<path d="M65.99,57.12 A17.5,17.5 0 0 1 34.01,57.12" fill="none" stroke="#24ADDB" stroke-width="4.2" stroke-linecap="round"/>
<path d="M77.11,58.81 A28.5,28.5 0 0 1 22.89,58.81" fill="none" stroke="#24ADDB" stroke-width="3.8" stroke-linecap="round"/>
<path d="M88.49,58.89 A39.5,39.5 0 0 1 11.51,58.89" fill="none" stroke="#24ADDB" stroke-width="3.4" stroke-linecap="round"/>
<circle cx="50.0" cy="50.0" r="13.5" fill="url(#hc-on-dark-halo)"/>
<circle cx="50.0" cy="50.0" r="10.0" fill="none" stroke="#24ADDB" stroke-width="2.4"/>
<circle cx="50.0" cy="50.0" r="4.8" fill="url(#hc-on-dark-core)"/></g>
<path transform="translate(179.56,73.51)" d="M20.34 1.14Q14.52 1.14 10.53 -0.7200000000000001Q6.54 -2.58 4.4399999999999995 -5.85Q2.34 -9.12 2.34 -13.26H10.68Q10.68 -11.52 11.64 -9.87Q12.6 -8.219999999999999 14.73 -7.199999999999999Q16.86 -6.18 20.34 -6.18Q23.46 -6.18 25.560000000000002 -7.08Q27.66 -7.9799999999999995 28.68 -9.45Q29.7 -10.92 29.7 -12.78Q29.7 -15.12 27.72 -16.529999999999998Q25.74 -17.939999999999998 21.599999999999998 -18.3L17.759999999999998 -18.599999999999998Q11.459999999999999 -19.14 7.709999999999999 -22.53Q3.96 -25.919999999999998 3.96 -31.5Q3.96 -35.699999999999996 5.9399999999999995 -38.73Q7.92 -41.76 11.489999999999998 -43.41Q15.059999999999999 -45.059999999999995 19.86 -45.059999999999995Q24.84 -45.059999999999995 28.439999999999998 -43.31999999999999Q32.04 -41.58 34.019999999999996 -38.43Q36.0 -35.28 36.0 -31.02H27.66Q27.66 -32.82 26.79 -34.349999999999994Q25.919999999999998 -35.879999999999995 24.21 -36.81Q22.5 -37.74 19.86 -37.74Q17.34 -37.74 15.66 -36.9Q13.979999999999999 -36.059999999999995 13.139999999999999 -34.62Q12.299999999999999 -33.18 12.299999999999999 -31.5Q12.299999999999999 -29.459999999999997 13.799999999999999 -27.93Q15.299999999999999 -26.4 18.54 -26.16L22.38 -25.8Q27.06 -25.439999999999998 30.6 -23.82Q34.14 -22.2 36.09 -19.439999999999998Q38.04 -16.68 38.04 -12.78Q38.04 -8.64 35.879999999999995 -5.49Q33.72 -2.34 29.729999999999997 -0.6Q25.74 1.14 20.34 1.14Z M59.76 1.14Q55.559999999999995 1.14 52.41 -0.30000000000000004Q49.26 -1.74 47.19 -4.17Q45.12 -6.6 44.06999999999999 -9.6Q43.019999999999996 -12.6 43.019999999999996 -15.719999999999999V-16.86Q43.019999999999996 -20.099999999999998 44.06999999999999 -23.13Q45.12 -26.16 47.19 -28.53Q49.26 -30.9 52.31999999999999 -32.31Q55.379999999999995 -33.72 59.4 -33.72Q64.67999999999999 -33.72 68.25 -31.409999999999997Q71.82 -29.099999999999998 73.61999999999999 -25.349999999999998Q75.41999999999999 -21.599999999999998 75.41999999999999 -17.28V-14.28H46.559999999999995V-19.38H70.19999999999999L67.62 -16.86Q67.62 -19.98 66.72 -22.2Q65.82 -24.419999999999998 63.989999999999995 -25.619999999999997Q62.16 -26.82 59.4 -26.82Q56.64 -26.82 54.72 -25.560000000000002Q52.8 -24.3 51.809999999999995 -21.93Q50.81999999999999 -19.56 50.81999999999999 -16.259999999999998Q50.81999999999999 -13.2 51.779999999999994 -10.829999999999998Q52.739999999999995 -8.459999999999999 54.72 -7.109999999999999Q56.699999999999996 -5.76 59.76 -5.76Q62.81999999999999 -5.76 64.74 -6.989999999999999Q66.66 -8.219999999999999 67.19999999999999 -10.02H74.88Q74.16 -6.66 72.12 -4.14Q70.08 -1.6199999999999999 66.93 -0.24Q63.78 1.14 59.76 1.14Z M82.37999999999998 0.0V-32.58H88.97999999999999V-18.779999999999998H88.79999999999998Q88.79999999999998 -25.8 91.79999999999998 -29.4Q94.79999999999998 -33.0 100.61999999999999 -33.0H101.82V-25.74H99.53999999999999Q95.33999999999999 -25.74 93.02999999999999 -23.49Q90.71999999999998 -21.24 90.71999999999998 -16.98V0.0Z M121.97999999999999 1.14Q117.77999999999999 1.14 114.63 -0.30000000000000004Q111.47999999999999 -1.74 109.40999999999998 -4.17Q107.33999999999997 -6.6 106.28999999999998 -9.6Q105.23999999999998 -12.6 105.23999999999998 -15.719999999999999V-16.86Q105.23999999999998 -20.099999999999998 106.28999999999998 -23.13Q107.33999999999997 -26.16 109.40999999999998 -28.53Q111.47999999999999 -30.9 114.53999999999999 -32.31Q117.59999999999998 -33.72 121.61999999999998 -33.72Q126.89999999999998 -33.72 130.46999999999997 -31.409999999999997Q134.04 -29.099999999999998 135.83999999999997 -25.349999999999998Q137.64 -21.599999999999998 137.64 -17.28V-14.28H108.77999999999999V-19.38H132.42L129.83999999999997 -16.86Q129.83999999999997 -19.98 128.94 -22.2Q128.04 -24.419999999999998 126.20999999999998 -25.619999999999997Q124.37999999999998 -26.82 121.61999999999998 -26.82Q118.85999999999999 -26.82 116.93999999999998 -25.560000000000002Q115.01999999999998 -24.3 114.02999999999997 -21.93Q113.03999999999998 -19.56 113.03999999999998 -16.259999999999998Q113.03999999999998 -13.2 113.99999999999997 -10.829999999999998Q114.95999999999998 -8.459999999999999 116.93999999999998 -7.109999999999999Q118.91999999999999 -5.76 121.97999999999999 -5.76Q125.03999999999998 -5.76 126.95999999999998 -6.989999999999999Q128.88 -8.219999999999999 129.42 -10.02H137.09999999999997Q136.38 -6.66 134.33999999999997 -4.14Q132.29999999999998 -1.6199999999999999 129.14999999999998 -0.24Q125.99999999999999 1.14 121.97999999999999 1.14Z M144.6 0.0V-32.58H151.2V-18.599999999999998H150.6Q150.6 -23.58 151.92 -26.909999999999997Q153.23999999999998 -30.24 155.84999999999997 -31.92Q158.45999999999998 -33.6 162.35999999999999 -33.6H162.71999999999997Q168.54 -33.6 171.54 -29.85Q174.54 -26.099999999999998 174.54 -18.66V0.0H166.2V-19.38Q166.2 -22.38 164.48999999999998 -24.24Q162.77999999999997 -26.099999999999998 159.77999999999997 -26.099999999999998Q156.71999999999997 -26.099999999999998 154.82999999999998 -24.21Q152.94 -22.32 152.94 -19.14V0.0Z M185.04 0.0V-32.58H193.37999999999997V0.0ZM180.48 -26.34V-32.58H193.37999999999997V-26.34ZM188.09999999999997 -36.48Q185.64 -36.48 184.46999999999997 -37.769999999999996Q183.29999999999998 -39.059999999999995 183.29999999999998 -41.04Q183.29999999999998 -43.019999999999996 184.46999999999997 -44.28Q185.64 -45.54 188.09999999999997 -45.54Q190.55999999999997 -45.54 191.7 -44.28Q192.83999999999997 -43.019999999999996 192.83999999999997 -41.04Q192.83999999999997 -39.059999999999995 191.7 -37.769999999999996Q190.55999999999997 -36.48 188.09999999999997 -36.48Z M217.14 0.42Q212.64 0.42 209.73 -0.75Q206.82 -1.92 205.38 -4.71Q203.93999999999997 -7.5 203.93999999999997 -12.24L203.99999999999997 -41.76H211.79999999999998L211.73999999999998 -11.7Q211.73999999999998 -9.299999999999999 213.02999999999997 -8.01Q214.32 -6.72 216.71999999999997 -6.72H221.82V0.42ZM198.77999999999997 -26.459999999999997V-32.58H221.82V-26.459999999999997Z M243.41999999999996 1.14Q239.21999999999997 1.14 236.06999999999996 -0.30000000000000004Q232.91999999999996 -1.74 230.84999999999997 -4.17Q228.77999999999997 -6.6 227.72999999999996 -9.6Q226.67999999999998 -12.6 226.67999999999998 -15.719999999999999V-16.86Q226.67999999999998 -20.099999999999998 227.72999999999996 -23.13Q228.77999999999997 -26.16 230.84999999999997 -28.53Q232.91999999999996 -30.9 235.97999999999996 -32.31Q239.03999999999996 -33.72 243.05999999999997 -33.72Q248.33999999999997 -33.72 251.90999999999997 -31.409999999999997Q255.47999999999996 -29.099999999999998 257.28 -25.349999999999998Q259.08 -21.599999999999998 259.08 -17.28V-14.28H230.21999999999997V-19.38H253.85999999999996L251.27999999999997 -16.86Q251.27999999999997 -19.98 250.37999999999997 -22.2Q249.47999999999996 -24.419999999999998 247.64999999999998 -25.619999999999997Q245.81999999999996 -26.82 243.05999999999997 -26.82Q240.29999999999995 -26.82 238.37999999999997 -25.560000000000002Q236.45999999999998 -24.3 235.46999999999997 -21.93Q234.47999999999996 -19.56 234.47999999999996 -16.259999999999998Q234.47999999999996 -13.2 235.43999999999997 -10.829999999999998Q236.39999999999998 -8.459999999999999 238.37999999999997 -7.109999999999999Q240.35999999999996 -5.76 243.41999999999996 -5.76Q246.47999999999996 -5.76 248.39999999999998 -6.989999999999999Q250.31999999999996 -8.219999999999999 250.85999999999996 -10.02H258.53999999999996Q257.81999999999994 -6.66 255.77999999999994 -4.14Q253.73999999999995 -1.6199999999999999 250.58999999999997 -0.24Q247.43999999999997 1.14 243.41999999999996 1.14Z M280.49999999999994 1.14Q276.23999999999995 1.14 273.15 -0.30000000000000004Q270.05999999999995 -1.74 267.98999999999995 -4.14Q265.91999999999996 -6.54 264.9 -9.54Q263.87999999999994 -12.54 263.87999999999994 -15.66V-16.8Q263.87999999999994 -20.099999999999998 264.92999999999995 -23.13Q265.97999999999996 -26.16 268.0799999999999 -28.53Q270.17999999999995 -30.9 273.27 -32.31Q276.35999999999996 -33.72 280.43999999999994 -33.72Q284.69999999999993 -33.72 288.05999999999995 -32.07Q291.41999999999996 -30.419999999999998 293.42999999999995 -27.479999999999997Q295.43999999999994 -24.54 295.67999999999995 -20.64H287.5799999999999Q287.28 -23.16 285.44999999999993 -24.84Q283.61999999999995 -26.52 280.43999999999994 -26.52Q277.67999999999995 -26.52 275.84999999999997 -25.2Q274.02 -23.88 273.12 -21.57Q272.21999999999997 -19.259999999999998 272.21999999999997 -16.259999999999998Q272.21999999999997 -13.379999999999999 273.09 -11.04Q273.96 -8.7 275.78999999999996 -7.379999999999999Q277.61999999999995 -6.06 280.49999999999994 -6.06Q282.65999999999997 -6.06 284.21999999999997 -6.84Q285.78 -7.62 286.7099999999999 -9.0Q287.63999999999993 -10.379999999999999 287.87999999999994 -12.12H295.97999999999996Q295.73999999999995 -8.16 293.66999999999996 -5.1899999999999995Q291.59999999999997 -2.2199999999999998 288.2099999999999 -0.5399999999999999Q284.81999999999994 1.14 280.49999999999994 1.14Z M302.64 0.0V-43.8H310.97999999999996V-18.24H309.53999999999996Q309.53999999999996 -23.16 310.79999999999995 -26.58Q312.06 -30.0 314.54999999999995 -31.8Q317.03999999999996 -33.6 320.88 -33.6H321.23999999999995Q326.82 -33.6 329.7 -29.759999999999998Q332.58 -25.919999999999998 332.58 -18.599999999999998V0.0H324.23999999999995V-19.38Q324.23999999999995 -22.5 322.46999999999997 -24.299999999999997Q320.7 -26.099999999999998 317.82 -26.099999999999998Q314.76 -26.099999999999998 312.87 -24.089999999999996Q310.97999999999996 -22.08 310.97999999999996 -18.84V0.0Z" fill="#F4F8FB"/>
</svg>
